G04 Generated by Ultiboard 13.0 *
%FSLAX34Y34*%
%MOMM*%

%ADD10C,0.0001*%
%ADD11C,0.1270*%
%ADD12C,3.4036*%
%ADD13C,2.2600*%
%ADD14C,1.6088*%
%ADD15C,1.6510*%
%ADD16C,1.5076*%
%ADD17R,0.5291X0.5291*%
%ADD18C,0.9949*%
%ADD19C,1.9898*%
%ADD20C,2.4978*%
%ADD21C,1.5000*%
%ADD22R,1.5000X1.5000*%
%ADD23C,1.9930*%
%ADD24R,1.9930X1.9930*%
%ADD25C,1.8202*%
%ADD26C,1.4000*%
%ADD27C,1.3446*%


G04 ColorRGB 9900CC for the following layer *
%LNSolder Mask Bottom*%
%LPD*%
G54D10*
G54D11*
X251476Y-91880D02*
X251476Y29107D01*
X251476Y-91880D02*
X375056Y-91880D01*
X1487274Y-91880D02*
X1363694Y-91880D01*
X1487274Y-91880D02*
X1487274Y29107D01*
X1487274Y1117994D02*
X1487274Y997007D01*
X1487274Y1117994D02*
X1363694Y1117994D01*
X251476Y1117994D02*
X375056Y1117994D01*
X251476Y1117994D02*
X251476Y997007D01*
X201476Y-91880D02*
X101476Y-91880D01*
X151476Y-141880D02*
X151476Y-41880D01*
X113976Y-91880D02*
G75*
D01*
G02X113976Y-91880I37500J0*
G01*
X1537274Y-91880D02*
X1637274Y-91880D01*
X1587274Y-141880D02*
X1587274Y-41880D01*
X1549774Y-91880D02*
G75*
D01*
G02X1549774Y-91880I37500J0*
G01*
X1574774Y-91880D02*
G75*
D01*
G02X1574774Y-91880I12500J0*
G01*
X201476Y1117994D02*
X101476Y1117994D01*
X151476Y1067994D02*
X151476Y1167994D01*
X113976Y1117994D02*
G75*
D01*
G02X113976Y1117994I37500J0*
G01*
X126476Y1117994D02*
G75*
D01*
G02X126476Y1117994I25000J0*
G01*
X138976Y1117994D02*
G75*
D01*
G02X138976Y1117994I12500J0*
G01*
G54D12*
X407416Y246380D03*
X407416Y-3556D03*
G54D13*
X421640Y66040D03*
X421640Y93726D03*
X421640Y121412D03*
X421640Y149098D03*
X421640Y176784D03*
X393192Y79883D03*
X393192Y107569D03*
X393192Y135255D03*
X393192Y162941D03*
G54D14*
X632460Y548640D03*
X657860Y548640D03*
X683260Y548640D03*
X708660Y548640D03*
X734060Y548640D03*
X759460Y548640D03*
X784860Y548640D03*
X810260Y548640D03*
X835660Y548640D03*
X861060Y548640D03*
X886460Y548640D03*
X911860Y548640D03*
X937260Y548640D03*
X962660Y548640D03*
X988060Y548640D03*
X1013460Y548640D03*
X1038860Y548640D03*
X1064260Y548640D03*
X1089660Y548640D03*
X1115060Y548640D03*
X1140460Y548640D03*
X1165860Y548640D03*
X1191260Y548640D03*
X1242060Y548640D03*
X632460Y345440D03*
X657860Y345440D03*
X683260Y345440D03*
X708660Y345440D03*
X734060Y345440D03*
X759460Y345440D03*
X784860Y345440D03*
X810260Y345440D03*
X835660Y345440D03*
X861060Y345440D03*
X886460Y345440D03*
X911860Y345440D03*
X937260Y345440D03*
X962660Y345440D03*
X988060Y345440D03*
X1013460Y345440D03*
X1038860Y345440D03*
X1064260Y345440D03*
X1089660Y345440D03*
X1115060Y345440D03*
X1140460Y345440D03*
X1165860Y345440D03*
X1191260Y345440D03*
X1216660Y345440D03*
X1242060Y345440D03*
X1267460Y345440D03*
X1267460Y548640D03*
X1216660Y548640D03*
X584200Y350520D03*
X584200Y401320D03*
X533400Y350520D03*
X533400Y401320D03*
X701040Y-35560D03*
X726440Y-35560D03*
X675640Y-35560D03*
X1046480Y-35560D03*
X1021080Y-35560D03*
X970280Y-35560D03*
X995680Y-35560D03*
X1168400Y-35560D03*
X1300480Y45720D03*
X1249680Y726440D03*
X1417320Y426720D03*
X1417320Y452120D03*
X1417320Y502920D03*
X1417320Y477520D03*
X1407160Y228600D03*
X1407160Y254000D03*
G54D15*
X1262380Y497840D03*
X1262380Y472440D03*
X1262380Y447040D03*
X1262380Y421640D03*
X1262380Y396240D03*
G54D16*
X1264920Y604520D03*
X1277620Y617220D03*
X1264920Y629920D03*
G54D17*
X751840Y-35560D03*
X1071880Y-35560D03*
X1143000Y-35560D03*
X1300480Y71120D03*
X1249680Y701040D03*
X1417320Y401320D03*
X1407160Y203200D03*
G54D18*
X749195Y-38205D02*
X754485Y-38205D01*
X754485Y-32915D01*
X749195Y-32915D01*
X749195Y-38205D01*D02*
X1069235Y-38205D02*
X1074525Y-38205D01*
X1074525Y-32915D01*
X1069235Y-32915D01*
X1069235Y-38205D01*D02*
X1140355Y-38205D02*
X1145645Y-38205D01*
X1145645Y-32915D01*
X1140355Y-32915D01*
X1140355Y-38205D01*D02*
X1297835Y68475D02*
X1303125Y68475D01*
X1303125Y73765D01*
X1297835Y73765D01*
X1297835Y68475D01*D02*
X1247035Y698395D02*
X1252325Y698395D01*
X1252325Y703685D01*
X1247035Y703685D01*
X1247035Y698395D01*D02*
X1414675Y398675D02*
X1419965Y398675D01*
X1419965Y403965D01*
X1414675Y403965D01*
X1414675Y398675D01*D02*
X1404515Y200555D02*
X1409805Y200555D01*
X1409805Y205845D01*
X1404515Y205845D01*
X1404515Y200555D01*D02*
G54D19*
X335280Y370840D03*
X335280Y421640D03*
X335280Y396240D03*
G54D20*
X541123Y652883D03*
X312523Y652883D03*
X543560Y553720D03*
X314960Y553720D03*
G54D21*
X588780Y568160D03*
X588780Y518160D03*
X1102360Y-38240D03*
X1102360Y111760D03*
X960120Y594360D03*
X915498Y696820D03*
X1016000Y685800D03*
X1061720Y584200D03*
X1152360Y655820D03*
X1102360Y655820D03*
X1198880Y203200D03*
X1198380Y152400D03*
X1229360Y149720D03*
X1229360Y299720D03*
X1194800Y293640D03*
X1194300Y242840D03*
X847860Y634200D03*
X847860Y584200D03*
X812300Y634200D03*
X812300Y584200D03*
X776740Y634200D03*
X776740Y584200D03*
X840880Y670560D03*
X690880Y670560D03*
X692230Y707470D03*
X842230Y707470D03*
X730120Y608700D03*
X680120Y608700D03*
X491710Y321090D03*
X341710Y321090D03*
X940201Y-29833D03*
X792480Y-55880D03*
X1306060Y681520D03*
X1306060Y731520D03*
X637680Y-35560D03*
X487680Y-35560D03*
X502420Y50000D03*
X502420Y0D03*
X701040Y2400D03*
X701040Y152400D03*
X735250Y1350D03*
X735250Y151350D03*
X1203960Y629920D03*
X960120Y726740D03*
X1110120Y726740D03*
X1214120Y-58560D03*
X1214120Y91440D03*
X629920Y164960D03*
X629920Y314960D03*
X1346200Y673240D03*
X1346200Y523240D03*
X1376180Y253200D03*
X1376180Y203200D03*
X640080Y825640D03*
X640080Y675640D03*
X857020Y868680D03*
X857020Y918680D03*
X680420Y858520D03*
X680420Y1008520D03*
X762000Y1008520D03*
X762000Y858520D03*
X1107440Y866000D03*
X1107440Y1016000D03*
X1148080Y871080D03*
X1148080Y1021080D03*
X1069480Y949960D03*
X919480Y949960D03*
X864100Y960920D03*
X864100Y1010920D03*
X919480Y985920D03*
X919480Y1010920D03*
X894580Y864400D03*
X894580Y914400D03*
X584200Y624840D03*
X584700Y675640D03*
X1294600Y808220D03*
X1244600Y808220D03*
G54D22*
X960120Y695960D03*
X915498Y595220D03*
X1016000Y584200D03*
X1061720Y685800D03*
X1203960Y731520D03*
G54D23*
X492760Y462280D03*
X518160Y462280D03*
G54D24*
X543560Y462280D03*
G54D25*
X409307Y1038109D03*
X455205Y1038109D03*
X501104Y1038109D03*
X547003Y1038109D03*
X317509Y1038109D03*
X363408Y1038109D03*
G54D26*
X616680Y1001260D03*
X616680Y976260D03*
X1301320Y935880D03*
X1281320Y935880D03*
G54D27*
X508000Y218440D03*
X533400Y218440D03*
X558800Y218440D03*
X584200Y218440D03*
X508000Y294640D03*
X533400Y294640D03*
X558800Y294640D03*
X584200Y294640D03*

M02*
