G04 Generated by Ultiboard 13.0 *
%FSLAX34Y34*%
%MOMM*%

%ADD10C,0.0001*%
%ADD11C,0.0010*%
%ADD12C,0.2540*%
%ADD13C,0.7000*%
%ADD14C,0.1270*%
%ADD15C,3.4036*%
%ADD16C,2.2600*%
%ADD17C,1.6088*%
%ADD18C,1.6510*%
%ADD19C,1.5076*%
%ADD20R,0.5291X0.5291*%
%ADD21C,0.9949*%
%ADD22C,1.9898*%
%ADD23C,2.4978*%
%ADD24C,1.5000*%
%ADD25R,1.5000X1.5000*%
%ADD26C,1.9930*%
%ADD27R,1.9930X1.9930*%
%ADD28C,1.8202*%
%ADD29C,1.4000*%
%ADD30C,1.3446*%


G04 ColorRGB 0000FF for the following layer *
%LNCopper Bottom*%
%LPD*%
G54D10*
G36*
X1046480Y666727D02*
X1046480Y666727D01*
X994728Y666727D01*
X963184Y635183D01*
X925555Y597554D01*
X925555Y587720D01*
G75*
D01*
G02X922998Y585163I-2557J0*
G01*
X922998Y585163D01*
X907998Y585163D01*
G75*
D01*
G02X905441Y587720I0J2557*
G01*
X905441Y587720D01*
X905441Y602720D01*
G75*
D01*
G02X907998Y605277I2557J0*
G01*
X907998Y605277D01*
X922436Y605277D01*
X952341Y635183D01*
X952341Y635183D01*
X990429Y673271D01*
G75*
D01*
G02X993146Y674393I2710J-2711*
G01*
X993146Y674393D01*
X1044892Y674393D01*
X1051663Y681164D01*
X1051663Y693300D01*
G75*
D01*
G02X1054220Y695857I2557J0*
G01*
X1054220Y695857D01*
X1069220Y695857D01*
G74*
D01*
G02X1071777Y693300I0J2557*
G01*
X1071777Y693300D01*
X1071777Y689633D01*
X1156652Y689633D01*
X1170599Y703580D01*
X973161Y703580D01*
X970177Y700596D01*
X970177Y688460D01*
G75*
D01*
G02X967620Y685903I-2557J0*
G01*
X967620Y685903D01*
X952620Y685903D01*
G75*
D01*
G02X950063Y688460I0J2557*
G01*
X950063Y688460D01*
X950063Y703460D01*
G74*
D01*
G02X950066Y703580I2557J4*
G01*
X950066Y703580D01*
X922928Y703580D01*
G75*
D01*
G02X908068Y703580I-7430J-6760*
G01*
X908068Y703580D01*
X851491Y703580D01*
G75*
D01*
G02X832969Y703580I-9261J3888*
G01*
X832969Y703580D01*
X701491Y703580D01*
G74*
D01*
G02X701390Y703347I9265J3878*
G01*
X701390Y703347D01*
X701157Y703580D01*
X694492Y703580D01*
G75*
D01*
G02X689968Y703580I-2262J3889*
G01*
X689968Y703580D01*
X683303Y703580D01*
X683070Y703347D01*
G74*
D01*
G02X682969Y703580I9165J4111*
G01*
X682969Y703580D01*
X615973Y703580D01*
X615973Y629920D01*
G75*
D01*
G02X614845Y627204I-3833J0*
G01*
X614845Y627204D01*
X553034Y565393D01*
G75*
D01*
G02X545435Y568637I-9474J-11672*
G01*
X545435Y568637D01*
X608307Y631508D01*
X608307Y703580D01*
X305770Y703580D01*
X347189Y662162D01*
G74*
D01*
G02X348974Y657860I4289J4301*
G01*
X348974Y657860D01*
X348974Y421640D01*
G75*
D01*
G02X347680Y417892I-6074J0*
G01*
G74*
D01*
G02X337834Y408940I12400J3748*
G01*
G75*
D01*
G02X337834Y383540I-2553J-12700*
G01*
G75*
D01*
G02X332726Y383540I-2554J-12700*
G01*
G75*
D01*
G02X332726Y408940I2553J12700*
G01*
G75*
D01*
G02X336826Y434502I2543J12702*
G01*
X336826Y434502D01*
X336826Y655344D01*
X292100Y700070D01*
X292100Y-78740D01*
X1480820Y-78740D01*
X1480820Y703580D01*
X1259881Y703580D01*
X1259881Y698395D01*
G75*
D01*
G02X1252325Y690839I-7556J0*
G01*
X1252325Y690839D01*
X1247035Y690839D01*
G75*
D01*
G02X1239479Y698395I0J7556*
G01*
X1239479Y698395D01*
X1239479Y703580D01*
X1181441Y703580D01*
X1160956Y683095D01*
G74*
D01*
G02X1158240Y681967I2716J2705*
G01*
X1158240Y681967D01*
X1071777Y681967D01*
X1071777Y678300D01*
G75*
D01*
G02X1069220Y675743I-2557J0*
G01*
X1069220Y675743D01*
X1057084Y675743D01*
X1049196Y667855D01*
G74*
D01*
G02X1046480Y666727I2716J2705*
G01*
D02*
G37*
%LPC*%
G36*
X741680Y-59713D02*
G75*
D01*
G02X737847Y-55880I0J3833*
G01*
X737847Y-55880D01*
X737847Y-52388D01*
X730709Y-45250D01*
G75*
D01*
G02X736130Y-39829I-4268J9689*
G01*
X736130Y-39829D01*
X744385Y-48084D01*
G74*
D01*
G02X745513Y-50800I2705J2716*
G01*
X745513Y-50800D01*
X745513Y-52047D01*
X783195Y-52047D01*
G75*
D01*
G02X801765Y-52047I9285J-3833*
G01*
X801765Y-52047D01*
X1159192Y-52047D01*
X1164567Y-46672D01*
X1164567Y-45431D01*
G75*
D01*
G02X1172233Y-45431I3833J9871*
G01*
X1172233Y-45431D01*
X1172233Y-48260D01*
G75*
D01*
G02X1171105Y-50976I-3833J0*
G01*
X1171105Y-50976D01*
X1163496Y-58585D01*
G74*
D01*
G02X1161912Y-59542I2715J2705*
G01*
G75*
D01*
G02X1160774Y-59713I-1132J3661*
G01*
X1160774Y-59713D01*
X801765Y-59713D01*
G75*
D01*
G02X783195Y-59713I-9285J3833*
G01*
X783195Y-59713D01*
X741680Y-59713D01*
D02*
G37*
G36*
X1274512Y626812D02*
G75*
D01*
G02X1274512Y607628I3105J-9592*
G01*
G75*
D01*
G02X1274115Y600382I-9591J-3108*
G01*
X1274115Y600382D01*
X1270000Y604497D01*
G74*
D01*
G02X1264943Y599440I5080J23*
G01*
X1264943Y599440D01*
X1269058Y595325D01*
G75*
D01*
G02X1260782Y595325I-4138J9195*
G01*
X1260782Y595325D01*
X1264897Y599440D01*
G74*
D01*
G02X1259840Y604497I23J5080*
G01*
X1259840Y604497D01*
X1255725Y600382D01*
G75*
D01*
G02X1255725Y608658I9195J4138*
G01*
X1255725Y608658D01*
X1259840Y604543D01*
G74*
D01*
G02X1264897Y609600I5080J23*
G01*
X1264897Y609600D01*
X1260782Y613715D01*
G75*
D01*
G02X1268028Y614112I4138J-9195*
G01*
G75*
D01*
G02X1268028Y620328I9591J3108*
G01*
G75*
D01*
G02X1274512Y626812I-3107J9591*
G01*
D02*
G37*
G36*
X781131Y635183D02*
G75*
D01*
G02X781131Y635183I-4391J-983*
G01*
D02*
G37*
G36*
X785900Y630077D02*
X785900Y630077D01*
X781777Y634200D01*
X782760Y635183D01*
X782760Y635183D01*
X782768Y635190D01*
X785900Y638323D01*
G75*
D01*
G02X785900Y630077I-9160J-4123*
G01*
D02*
G37*
G36*
X803140Y630077D02*
G75*
D01*
G02X803140Y638323I9160J4123*
G01*
X803140Y638323D01*
X806280Y635183D01*
X806280Y635183D01*
X807263Y634200D01*
X803140Y630077D01*
D02*
G37*
G36*
X816691Y635183D02*
G75*
D01*
G02X816691Y635183I-4391J-983*
G01*
D02*
G37*
G36*
X821460Y630077D02*
X821460Y630077D01*
X817337Y634200D01*
X818320Y635183D01*
X818320Y635183D01*
X821460Y638323D01*
G75*
D01*
G02X821460Y630077I-9160J-4123*
G01*
D02*
G37*
G36*
X838700Y630077D02*
G75*
D01*
G02X838700Y638323I9160J4123*
G01*
X838700Y638323D01*
X841840Y635183D01*
X841840Y635183D01*
X842823Y634200D01*
X838700Y630077D01*
D02*
G37*
G36*
X852251Y635183D02*
G75*
D01*
G02X852251Y635183I-4391J-983*
G01*
D02*
G37*
G36*
X857020Y630077D02*
X857020Y630077D01*
X852897Y634200D01*
X853880Y635183D01*
X853880Y635183D01*
X857020Y638323D01*
G75*
D01*
G02X857020Y630077I-9160J-4123*
G01*
D02*
G37*
G36*
X767580Y630077D02*
G75*
D01*
G02X767580Y638323I9160J4123*
G01*
X767580Y638323D01*
X770720Y635183D01*
X770720Y635183D01*
X771703Y634200D01*
X767580Y630077D01*
D02*
G37*
G36*
X1004463Y543056D02*
G75*
D01*
G02X1004463Y543056I8997J5584*
G01*
D02*
G37*
G36*
X1244463Y558953D02*
G75*
D01*
G02X1244463Y558953I-2403J-10313*
G01*
D02*
G37*
G36*
X1195404Y635183D02*
G75*
D01*
G02X1195404Y635183I8556J-5263*
G01*
D02*
G37*
G36*
X1110261Y649617D02*
G75*
D01*
G02X1111974Y658731I-7901J6203*
G01*
G74*
D01*
G02X1112198Y658523I2494J2911*
G01*
X1112198Y658523D01*
X1135539Y635183D01*
X1135539Y635183D01*
X1168563Y602158D01*
G74*
D01*
G02X1169693Y599440I2703J2718*
G01*
X1169693Y599440D01*
X1169693Y558511D01*
G75*
D01*
G02X1162027Y558511I-3833J-9871*
G01*
X1162027Y558511D01*
X1162027Y597852D01*
X1124696Y635183D01*
X1110261Y649617D01*
D02*
G37*
G36*
X524463Y473086D02*
G75*
D01*
G02X524463Y473086I-6303J-10806*
G01*
D02*
G37*
G36*
X523744Y396974D02*
G75*
D01*
G02X523744Y405666I9655J4346*
G01*
X523744Y405666D01*
X528090Y401320D01*
X523744Y396974D01*
D02*
G37*
G36*
X1004463Y-29644D02*
G75*
D01*
G02X1004463Y-29644I-8783J-5916*
G01*
D02*
G37*
G36*
X524463Y298482D02*
G75*
D01*
G02X524463Y298482I8937J-3842*
G01*
D02*
G37*
G36*
X421405Y162941D02*
G75*
D01*
G02X421875Y162941I235J13842*
G01*
G75*
D01*
G02X421405Y162941I-235J-13842*
G01*
D02*
G37*
G36*
X511611Y303673D02*
X511611Y303673D01*
X529567Y321628D01*
X529567Y340649D01*
G75*
D01*
G02X537233Y340649I3833J9871*
G01*
X537233Y340649D01*
X537233Y320040D01*
G75*
D01*
G02X536105Y317324I-3833J0*
G01*
X536105Y317324D01*
X524463Y305681D01*
X517033Y298251D01*
G75*
D01*
G02X511833Y285699I-9033J-3611*
G01*
X511833Y285699D01*
X511833Y227381D01*
G75*
D01*
G02X504389Y209407I-3722J-8987*
G01*
X504389Y209407D01*
X473733Y178752D01*
X473733Y39688D01*
X503427Y9994D01*
G75*
D01*
G02X498565Y-9276I-1013J-9993*
G01*
X498565Y-9276D01*
X491513Y-16328D01*
X491513Y-26275D01*
G75*
D01*
G02X496956Y-39415I-3833J-9285*
G01*
X496956Y-39415D01*
X514668Y-57127D01*
X674052Y-57127D01*
X691350Y-39829D01*
G75*
D01*
G02X696771Y-45250I9689J4268*
G01*
X696771Y-45250D01*
X678356Y-63665D01*
G74*
D01*
G02X676920Y-64573I2716J2705*
G01*
G75*
D01*
G02X675633Y-64793I-1280J3613*
G01*
X675633Y-64793D01*
X513080Y-64793D01*
G75*
D01*
G02X512560Y-64758I-3J3833*
G01*
G74*
D01*
G02X510369Y-63671I519J3798*
G01*
X510369Y-63671D01*
X491535Y-44836D01*
G75*
D01*
G02X483847Y-26275I-3844J9281*
G01*
X483847Y-26275D01*
X483847Y-14750D01*
G75*
D01*
G02X484969Y-12029I3833J11*
G01*
X484969Y-12029D01*
X493144Y-3855D01*
G75*
D01*
G02X495397Y7182I9276J3855*
G01*
X495397Y7182D01*
X467189Y35389D01*
G75*
D01*
G02X466067Y38111I2711J2710*
G01*
X466067Y38111D01*
X466067Y180334D01*
G75*
D01*
G02X467189Y183051I3833J7*
G01*
X467189Y183051D01*
X498745Y214607D01*
X425768Y214607D01*
X397025Y185864D01*
X397025Y176245D01*
G75*
D01*
G02X393427Y149098I-3832J-13304*
G01*
G75*
D01*
G02X393427Y121412I-166J-13843*
G01*
G75*
D01*
G02X393427Y93726I-166J-13843*
G01*
G75*
D01*
G02X392957Y93726I-235J-13842*
G01*
G75*
D01*
G02X392957Y121412I166J13843*
G01*
G75*
D01*
G02X392957Y149098I166J13843*
G01*
G75*
D01*
G02X389359Y176245I228J13842*
G01*
X389359Y176245D01*
X389359Y187445D01*
G75*
D01*
G02X390481Y190163I3833J8*
G01*
X390481Y190163D01*
X421469Y221151D01*
G75*
D01*
G02X424185Y222273I2710J-2711*
G01*
X424185Y222273D01*
X499059Y222273D01*
G74*
D01*
G02X504167Y227381I8940J3832*
G01*
X504167Y227381D01*
X504167Y285699D01*
G75*
D01*
G02X511611Y303673I3722J8987*
G01*
D02*
G37*
G36*
X537011Y209407D02*
G75*
D01*
G02X542433Y214829I-3611J9033*
G01*
X542433Y214829D01*
X588468Y168793D01*
X620635Y168793D01*
G75*
D01*
G02X620635Y161127I9285J-3833*
G01*
X620635Y161127D01*
X586880Y161127D01*
G75*
D01*
G02X586710Y161130I-17J3833*
G01*
G74*
D01*
G02X584169Y162249I169J3829*
G01*
X584169Y162249D01*
X537011Y209407D01*
D02*
G37*
G36*
X1201916Y155183D02*
G75*
D01*
G02X1201916Y155183I-3536J-2783*
G01*
D02*
G37*
G36*
X1207540Y156523D02*
G75*
D01*
G02X1207540Y148277I-9160J-4123*
G01*
X1207540Y148277D01*
X1203417Y152400D01*
X1206200Y155183D01*
X1206200Y155183D01*
X1207540Y156523D01*
D02*
G37*
G36*
X1237790Y155183D02*
G75*
D01*
G02X1237790Y155183I-8430J-5463*
G01*
D02*
G37*
G36*
X1189220Y156523D02*
X1189220Y156523D01*
X1190560Y155183D01*
X1190560Y155183D01*
X1193343Y152400D01*
X1189220Y148277D01*
G75*
D01*
G02X1189220Y156523I9160J4123*
G01*
D02*
G37*
G36*
X1086949Y172549D02*
G75*
D01*
G02X1085827Y175271I2711J2710*
G01*
X1085827Y175271D01*
X1085827Y335569D01*
G75*
D01*
G02X1093493Y335569I3833J9871*
G01*
X1093493Y335569D01*
X1093493Y176848D01*
X1115159Y155183D01*
X1115159Y155183D01*
X1175068Y95273D01*
X1204835Y95273D01*
G75*
D01*
G02X1204835Y87607I9285J-3833*
G01*
X1204835Y87607D01*
X1173480Y87607D01*
G75*
D01*
G02X1173375Y87608I-16J3833*
G01*
G74*
D01*
G02X1170769Y88729I104J3832*
G01*
X1170769Y88729D01*
X1104316Y155183D01*
X1104316Y155183D01*
X1086949Y172549D01*
D02*
G37*
G36*
X744526Y155205D02*
G75*
D01*
G02X744526Y147495I-9276J-3855*
G01*
X744526Y147495D01*
X754543Y137478D01*
G74*
D01*
G02X755673Y134760I2703J2718*
G01*
X755673Y134760D01*
X755673Y-25453D01*
G74*
D01*
G02X762041Y-32915I1187J7461*
G01*
X762041Y-32915D01*
X762041Y-38205D01*
G75*
D01*
G02X754485Y-45761I-7556J0*
G01*
X754485Y-45761D01*
X749195Y-45761D01*
G75*
D01*
G02X741639Y-38205I0J7556*
G01*
X741639Y-38205D01*
X741639Y-32915D01*
G74*
D01*
G02X748007Y-25453I7556J0*
G01*
X748007Y-25453D01*
X748007Y133172D01*
X739105Y142074D01*
G75*
D01*
G02X739105Y160626I-3855J9276*
G01*
X739105Y160626D01*
X755627Y177148D01*
X755627Y335569D01*
G75*
D01*
G02X763293Y335569I3833J9871*
G01*
X763293Y335569D01*
X763293Y175560D01*
G75*
D01*
G02X762165Y172844I-3833J0*
G01*
X762165Y172844D01*
X744526Y155205D01*
D02*
G37*
G36*
X704873Y161685D02*
G75*
D01*
G02X697185Y143124I-3844J-9281*
G01*
X697185Y143124D01*
X679473Y125412D01*
X679473Y-25689D01*
G75*
D01*
G02X671807Y-25689I-3833J-9871*
G01*
X671807Y-25689D01*
X671807Y126992D01*
G75*
D01*
G02X672929Y129711I3833J9*
G01*
X672929Y129711D01*
X691764Y148545D01*
G75*
D01*
G02X697207Y161685I9276J3855*
G01*
X697207Y161685D01*
X697207Y312413D01*
G75*
D01*
G02X698329Y315131I3833J8*
G01*
X698329Y315131D01*
X724370Y341171D01*
G75*
D01*
G02X729791Y335750I9689J4268*
G01*
X729791Y335750D01*
X704873Y310832D01*
X704873Y161685D01*
D02*
G37*
G36*
X1273128Y395183D02*
G75*
D01*
G02X1273128Y395183I-10748J1057*
G01*
D02*
G37*
G36*
X1427521Y398675D02*
G75*
D01*
G02X1419965Y391119I-7556J0*
G01*
X1419965Y391119D01*
X1414675Y391119D01*
G75*
D01*
G02X1407119Y398675I0J7556*
G01*
X1407119Y398675D01*
X1407119Y403965D01*
G75*
D01*
G02X1414675Y411521I7556J0*
G01*
X1414675Y411521D01*
X1419965Y411521D01*
G74*
D01*
G02X1427521Y403965I0J7556*
G01*
X1427521Y403965D01*
X1427521Y398675D01*
D02*
G37*
G36*
X1244463Y349180D02*
G75*
D01*
G02X1244463Y349180I-2403J-3740*
G01*
D02*
G37*
G36*
X1004463Y351024D02*
G75*
D01*
G02X1004463Y351024I8997J-5584*
G01*
D02*
G37*
G36*
X764463Y539307D02*
G75*
D01*
G02X764463Y539307I-5003J9333*
G01*
D02*
G37*
G36*
X537746Y391664D02*
G75*
D01*
G02X529054Y391664I-4346J9655*
G01*
X529054Y391664D01*
X533400Y396010D01*
X537746Y391664D01*
D02*
G37*
G36*
X588546Y391664D02*
G75*
D01*
G02X579854Y391664I-4346J9655*
G01*
X579854Y391664D01*
X584200Y396010D01*
X588546Y391664D01*
D02*
G37*
G36*
X297489Y652883D02*
G75*
D01*
G02X297489Y652883I15034J0*
G01*
D02*
G37*
G36*
X1025392Y682238D02*
G74*
D01*
G02X1019562Y676408I9391J3561*
G01*
X1019562Y676408D01*
X1019562Y682238D01*
X1025392Y682238D01*
D02*
G37*
G36*
X1012438Y676408D02*
G74*
D01*
G02X1006608Y682238I3561J9391*
G01*
X1006608Y682238D01*
X1012438Y682238D01*
X1012438Y676408D01*
D02*
G37*
G36*
X1019562Y695192D02*
G74*
D01*
G02X1025392Y689362I3561J9391*
G01*
X1025392Y689362D01*
X1019562Y689362D01*
X1019562Y695192D01*
D02*
G37*
G36*
X1011500Y685800D02*
G75*
D01*
G02X1011500Y685800I4500J0*
G01*
D02*
G37*
G36*
X1006608Y689362D02*
G74*
D01*
G02X1012438Y695192I9391J3561*
G01*
X1012438Y695192D01*
X1012438Y689362D01*
X1006608Y689362D01*
D02*
G37*
G36*
X574748Y674278D02*
G75*
D01*
G02X583338Y665688I9951J1361*
G01*
X583338Y665688D01*
X566245Y648595D01*
G74*
D01*
G02X561943Y646809I4302J4288*
G01*
X561943Y646809D01*
X554876Y646809D01*
G75*
D01*
G02X554876Y658957I-13752J6074*
G01*
X554876Y658957D01*
X559427Y658957D01*
X574748Y674278D01*
D02*
G37*
G36*
X630035Y675640D02*
G75*
D01*
G02X630035Y675640I10045J0*
G01*
D02*
G37*
G36*
X680835Y670560D02*
G75*
D01*
G02X680835Y670560I10045J0*
G01*
D02*
G37*
G36*
X696353Y698310D02*
G75*
D01*
G02X688107Y698310I-4123J9160*
G01*
X688107Y698310D01*
X692230Y702432D01*
X696353Y698310D01*
D02*
G37*
G36*
X299926Y553720D02*
G75*
D01*
G02X299926Y553720I15034J0*
G01*
D02*
G37*
G36*
X506543Y40840D02*
G75*
D01*
G02X498297Y40840I-4123J9160*
G01*
X498297Y40840D01*
X502420Y44963D01*
X506543Y40840D01*
D02*
G37*
G36*
X498297Y59160D02*
G75*
D01*
G02X506543Y59160I4123J-9160*
G01*
X506543Y59160D01*
X502420Y55037D01*
X498297Y59160D01*
D02*
G37*
G36*
X497920Y50000D02*
G75*
D01*
G02X497920Y50000I4500J0*
G01*
D02*
G37*
G36*
X493260Y54123D02*
X493260Y54123D01*
X497383Y50000D01*
X493260Y45877D01*
G75*
D01*
G02X493260Y54123I9160J4123*
G01*
D02*
G37*
G36*
X511580Y54123D02*
G75*
D01*
G02X511580Y45877I-9160J-4123*
G01*
X511580Y45877D01*
X507457Y50000D01*
X511580Y54123D01*
D02*
G37*
G36*
X1301937Y690680D02*
G75*
D01*
G02X1310183Y690680I4123J-9160*
G01*
X1310183Y690680D01*
X1306060Y686557D01*
X1301937Y690680D01*
D02*
G37*
G36*
X1296900Y685643D02*
X1296900Y685643D01*
X1301023Y681520D01*
X1296900Y677397D01*
G75*
D01*
G02X1296900Y685643I9160J4123*
G01*
D02*
G37*
G36*
X1315220Y685643D02*
G75*
D01*
G02X1315220Y677397I-9160J-4123*
G01*
X1315220Y677397D01*
X1311097Y681520D01*
X1315220Y685643D01*
D02*
G37*
G36*
X1301560Y681520D02*
G75*
D01*
G02X1301560Y681520I4500J0*
G01*
D02*
G37*
G36*
X1310183Y672360D02*
G75*
D01*
G02X1301937Y672360I-4123J9160*
G01*
X1301937Y672360D01*
X1306060Y676483D01*
X1310183Y672360D01*
D02*
G37*
G36*
X1336155Y673240D02*
G75*
D01*
G02X1336155Y673240I10045J0*
G01*
D02*
G37*
G36*
X772617Y643360D02*
G75*
D01*
G02X780863Y643360I4123J-9160*
G01*
X780863Y643360D01*
X776740Y639237D01*
X772617Y643360D01*
D02*
G37*
G36*
X808177Y643360D02*
G75*
D01*
G02X816423Y643360I4123J-9160*
G01*
X816423Y643360D01*
X812300Y639237D01*
X808177Y643360D01*
D02*
G37*
G36*
X843737Y643360D02*
G75*
D01*
G02X851983Y643360I4123J-9160*
G01*
X851983Y643360D01*
X847860Y639237D01*
X843737Y643360D01*
D02*
G37*
G36*
X830835Y670560D02*
G75*
D01*
G02X830835Y670560I10045J0*
G01*
D02*
G37*
G36*
X1161520Y659943D02*
G75*
D01*
G02X1161520Y651697I-9160J-4123*
G01*
X1161520Y651697D01*
X1157397Y655820D01*
X1161520Y659943D01*
D02*
G37*
G36*
X1147860Y655820D02*
G75*
D01*
G02X1147860Y655820I4500J0*
G01*
D02*
G37*
G36*
X1143200Y659943D02*
X1143200Y659943D01*
X1147323Y655820D01*
X1143200Y651697D01*
G75*
D01*
G02X1143200Y659943I9160J4123*
G01*
D02*
G37*
G36*
X1156483Y646660D02*
G75*
D01*
G02X1148237Y646660I-4123J9160*
G01*
X1148237Y646660D01*
X1152360Y650783D01*
X1156483Y646660D01*
D02*
G37*
G36*
X1148237Y664980D02*
G75*
D01*
G02X1156483Y664980I4123J-9160*
G01*
X1156483Y664980D01*
X1152360Y660857D01*
X1148237Y664980D01*
D02*
G37*
G36*
X480250Y462280D02*
G75*
D01*
G02X480250Y462280I12510J0*
G01*
D02*
G37*
G36*
X930156Y-29833D02*
G75*
D01*
G02X930156Y-29833I10045J0*
G01*
D02*
G37*
G36*
X959691Y-35560D02*
G75*
D01*
G02X959691Y-35560I10589J0*
G01*
D02*
G37*
G36*
X294795Y-58420D02*
G75*
D01*
G02X294795Y-58420I15085J0*
G01*
D02*
G37*
G36*
X387853Y-3556D02*
G75*
D01*
G02X387853Y-3556I19563J0*
G01*
D02*
G37*
G36*
X421405Y79883D02*
G75*
D01*
G02X421875Y79883I235J13842*
G01*
G75*
D01*
G02X421405Y79883I-235J-13842*
G01*
D02*
G37*
G36*
X416640Y121412D02*
G75*
D01*
G02X416640Y121412I5000J0*
G01*
D02*
G37*
G36*
X416730Y108467D02*
G74*
D01*
G02X408695Y116502I4909J12944*
G01*
X408695Y116502D01*
X416730Y116502D01*
X416730Y108467D01*
D02*
G37*
G36*
X434585Y116502D02*
G74*
D01*
G02X426550Y108467I12944J4909*
G01*
X426550Y108467D01*
X426550Y116502D01*
X434585Y116502D01*
D02*
G37*
G36*
X408695Y126322D02*
G74*
D01*
G02X416730Y134357I12944J4909*
G01*
X416730Y134357D01*
X416730Y126322D01*
X408695Y126322D01*
D02*
G37*
G36*
X426550Y134357D02*
G74*
D01*
G02X434585Y126322I4909J12944*
G01*
X434585Y126322D01*
X426550Y126322D01*
X426550Y134357D01*
D02*
G37*
G36*
X1303125Y81321D02*
G74*
D01*
G02X1310681Y73765I0J7556*
G01*
X1310681Y73765D01*
X1310681Y68475D01*
G75*
D01*
G02X1303125Y60919I-7556J0*
G01*
X1303125Y60919D01*
X1297835Y60919D01*
G75*
D01*
G02X1290279Y68475I0J7556*
G01*
X1290279Y68475D01*
X1290279Y73765D01*
G75*
D01*
G02X1297835Y81321I7556J0*
G01*
X1297835Y81321D01*
X1303125Y81321D01*
D02*
G37*
G36*
X1442875Y-60960D02*
G75*
D01*
G02X1442875Y-60960I15085J0*
G01*
D02*
G37*
G36*
X1289891Y45720D02*
G75*
D01*
G02X1289891Y45720I10589J0*
G01*
D02*
G37*
G36*
X387853Y246380D02*
G75*
D01*
G02X387853Y246380I19563J0*
G01*
D02*
G37*
G36*
X331665Y321090D02*
G75*
D01*
G02X331665Y321090I10045J0*
G01*
D02*
G37*
G36*
X481665Y321090D02*
G75*
D01*
G02X481665Y321090I10045J0*
G01*
D02*
G37*
G36*
X1204960Y-54437D02*
X1204960Y-54437D01*
X1209083Y-58560D01*
X1204960Y-62683D01*
G75*
D01*
G02X1204960Y-54437I9160J4123*
G01*
D02*
G37*
G36*
X1223280Y-54437D02*
G75*
D01*
G02X1223280Y-62683I-9160J-4123*
G01*
X1223280Y-62683D01*
X1219157Y-58560D01*
X1223280Y-54437D01*
D02*
G37*
G36*
X1209620Y-58560D02*
G75*
D01*
G02X1209620Y-58560I4500J0*
G01*
D02*
G37*
G36*
X1218243Y-67720D02*
G75*
D01*
G02X1209997Y-67720I-4123J9160*
G01*
X1209997Y-67720D01*
X1214120Y-63597D01*
X1218243Y-67720D01*
D02*
G37*
G36*
X1010491Y-35560D02*
G75*
D01*
G02X1010491Y-35560I10589J0*
G01*
D02*
G37*
G36*
X1035891Y-35560D02*
G75*
D01*
G02X1035891Y-35560I10589J0*
G01*
D02*
G37*
G36*
X1061741Y-39177D02*
X1061741Y-39177D01*
X1068263Y-39177D01*
X1068263Y-45699D01*
G74*
D01*
G02X1061741Y-39177I971J7493*
G01*
D02*
G37*
G36*
X1075498Y-45699D02*
X1075498Y-45699D01*
X1075498Y-39177D01*
X1082019Y-39177D01*
G74*
D01*
G02X1075498Y-45699I7493J971*
G01*
D02*
G37*
G36*
X1066905Y-35560D02*
G75*
D01*
G02X1066905Y-35560I4975J0*
G01*
D02*
G37*
G36*
X1093200Y-34117D02*
X1093200Y-34117D01*
X1097323Y-38240D01*
X1093200Y-42363D01*
G75*
D01*
G02X1093200Y-34117I9160J4123*
G01*
D02*
G37*
G36*
X1106483Y-47400D02*
G75*
D01*
G02X1098237Y-47400I-4123J9160*
G01*
X1098237Y-47400D01*
X1102360Y-43277D01*
X1106483Y-47400D01*
D02*
G37*
G36*
X1097860Y-38240D02*
G75*
D01*
G02X1097860Y-38240I4500J0*
G01*
D02*
G37*
G36*
X1111520Y-34117D02*
G75*
D01*
G02X1111520Y-42363I-9160J-4123*
G01*
X1111520Y-42363D01*
X1107397Y-38240D01*
X1111520Y-34117D01*
D02*
G37*
G36*
X1111636Y107905D02*
X1111636Y107905D01*
X1145705Y73836D01*
G74*
D01*
G02X1146833Y71120I2705J2716*
G01*
X1146833Y71120D01*
X1146833Y-25453D01*
G74*
D01*
G02X1153201Y-32915I1187J7461*
G01*
X1153201Y-32915D01*
X1153201Y-38205D01*
G75*
D01*
G02X1145645Y-45761I-7556J0*
G01*
X1145645Y-45761D01*
X1140355Y-45761D01*
G75*
D01*
G02X1132799Y-38205I0J7556*
G01*
X1132799Y-38205D01*
X1132799Y-32915D01*
G74*
D01*
G02X1139167Y-25453I7556J0*
G01*
X1139167Y-25453D01*
X1139167Y69532D01*
X1106215Y102484D01*
G75*
D01*
G02X1111636Y107905I-3855J9276*
G01*
D02*
G37*
G36*
X1209997Y-49400D02*
G75*
D01*
G02X1218243Y-49400I4123J-9160*
G01*
X1218243Y-49400D01*
X1214120Y-53523D01*
X1209997Y-49400D01*
D02*
G37*
G36*
X1082019Y-31942D02*
X1082019Y-31942D01*
X1075498Y-31942D01*
X1075498Y-25421D01*
G74*
D01*
G02X1082019Y-31942I972J7493*
G01*
D02*
G37*
G36*
X1068263Y-25421D02*
X1068263Y-25421D01*
X1068263Y-31942D01*
X1061741Y-31942D01*
G74*
D01*
G02X1068263Y-25421I7493J972*
G01*
D02*
G37*
G36*
X1098237Y-29080D02*
G75*
D01*
G02X1106483Y-29080I4123J-9160*
G01*
X1106483Y-29080D01*
X1102360Y-33203D01*
X1098237Y-29080D01*
D02*
G37*
G36*
X1202503Y143240D02*
G75*
D01*
G02X1194257Y143240I-4123J9160*
G01*
X1194257Y143240D01*
X1198380Y147363D01*
X1202503Y143240D01*
D02*
G37*
G36*
X627635Y-35560D02*
G75*
D01*
G02X627635Y-35560I10045J0*
G01*
D02*
G37*
G36*
X696917Y11560D02*
G75*
D01*
G02X705163Y11560I4123J-9160*
G01*
X705163Y11560D01*
X701040Y7437D01*
X696917Y11560D01*
D02*
G37*
G36*
X705163Y-6760D02*
G75*
D01*
G02X696917Y-6760I-4123J9160*
G01*
X696917Y-6760D01*
X701040Y-2637D01*
X705163Y-6760D01*
D02*
G37*
G36*
X696540Y2400D02*
G75*
D01*
G02X696540Y2400I4500J0*
G01*
D02*
G37*
G36*
X691880Y6523D02*
X691880Y6523D01*
X696003Y2400D01*
X691880Y-1723D01*
G75*
D01*
G02X691880Y6523I9160J4123*
G01*
D02*
G37*
G36*
X710200Y6523D02*
G75*
D01*
G02X710200Y-1723I-9160J-4123*
G01*
X710200Y-1723D01*
X706077Y2400D01*
X710200Y6523D01*
D02*
G37*
G36*
X726090Y5473D02*
X726090Y5473D01*
X730213Y1350D01*
X726090Y-2773D01*
G75*
D01*
G02X726090Y5473I9160J4123*
G01*
D02*
G37*
G36*
X731127Y10510D02*
G75*
D01*
G02X739373Y10510I4123J-9160*
G01*
X739373Y10510D01*
X735250Y6387D01*
X731127Y10510D01*
D02*
G37*
G36*
X739373Y-7810D02*
G75*
D01*
G02X731127Y-7810I-4123J9160*
G01*
X731127Y-7810D01*
X735250Y-3687D01*
X739373Y-7810D01*
D02*
G37*
G36*
X730750Y1350D02*
G75*
D01*
G02X730750Y1350I4500J0*
G01*
D02*
G37*
G36*
X744410Y5473D02*
G75*
D01*
G02X744410Y-2773I-9160J-4123*
G01*
X744410Y-2773D01*
X740287Y1350D01*
X744410Y5473D01*
D02*
G37*
G36*
X1366135Y203200D02*
G75*
D01*
G02X1366135Y203200I10045J0*
G01*
D02*
G37*
G36*
X1404515Y192999D02*
G75*
D01*
G02X1396959Y200555I0J7556*
G01*
X1396959Y200555D01*
X1396959Y205845D01*
G75*
D01*
G02X1404515Y213401I7556J0*
G01*
X1404515Y213401D01*
X1409805Y213401D01*
G74*
D01*
G02X1417361Y205845I0J7556*
G01*
X1417361Y205845D01*
X1417361Y200555D01*
G75*
D01*
G02X1409805Y192999I-7556J0*
G01*
X1409805Y192999D01*
X1404515Y192999D01*
D02*
G37*
G36*
X1403405Y218699D02*
G74*
D01*
G02X1397259Y224845I3755J9901*
G01*
X1397259Y224845D01*
X1403405Y224845D01*
X1403405Y218699D01*
D02*
G37*
G36*
X1417061Y224845D02*
G74*
D01*
G02X1410915Y218699I9901J3755*
G01*
X1410915Y218699D01*
X1410915Y224845D01*
X1417061Y224845D01*
D02*
G37*
G36*
X1397259Y232355D02*
G74*
D01*
G02X1403405Y238501I9901J3755*
G01*
X1403405Y238501D01*
X1403405Y232355D01*
X1397259Y232355D01*
D02*
G37*
G36*
X1410915Y238501D02*
G74*
D01*
G02X1417061Y232355I3755J9901*
G01*
X1417061Y232355D01*
X1410915Y232355D01*
X1410915Y238501D01*
D02*
G37*
G36*
X1402715Y228600D02*
G75*
D01*
G02X1402715Y228600I4445J0*
G01*
D02*
G37*
G36*
X1372057Y262360D02*
G75*
D01*
G02X1380303Y262360I4123J-9160*
G01*
X1380303Y262360D01*
X1376180Y258237D01*
X1372057Y262360D01*
D02*
G37*
G36*
X1380303Y244040D02*
G75*
D01*
G02X1372057Y244040I-4123J9160*
G01*
X1372057Y244040D01*
X1376180Y248163D01*
X1380303Y244040D01*
D02*
G37*
G36*
X1371680Y253200D02*
G75*
D01*
G02X1371680Y253200I4500J0*
G01*
D02*
G37*
G36*
X1367020Y257323D02*
X1367020Y257323D01*
X1371143Y253200D01*
X1367020Y249077D01*
G75*
D01*
G02X1367020Y257323I9160J4123*
G01*
D02*
G37*
G36*
X1396571Y254000D02*
G75*
D01*
G02X1396571Y254000I10589J0*
G01*
D02*
G37*
G36*
X1385340Y257323D02*
G75*
D01*
G02X1385340Y249077I-9160J-4123*
G01*
X1385340Y249077D01*
X1381217Y253200D01*
X1385340Y257323D01*
D02*
G37*
G36*
X1251961Y341685D02*
G74*
D01*
G02X1245815Y335539I9901J3755*
G01*
X1245815Y335539D01*
X1245815Y341685D01*
X1251961Y341685D01*
D02*
G37*
G36*
X1256871Y345440D02*
G75*
D01*
G02X1256871Y345440I10589J0*
G01*
D02*
G37*
G36*
X1245815Y355341D02*
G74*
D01*
G02X1251961Y349195I3755J9901*
G01*
X1251961Y349195D01*
X1245815Y349195D01*
X1245815Y355341D01*
D02*
G37*
G36*
X1251580Y421640D02*
G75*
D01*
G02X1251580Y421640I10800J0*
G01*
D02*
G37*
G36*
X1406731Y426720D02*
G75*
D01*
G02X1406731Y426720I10589J0*
G01*
D02*
G37*
G36*
X1251580Y447040D02*
G75*
D01*
G02X1251580Y447040I10800J0*
G01*
D02*
G37*
G36*
X1406731Y452120D02*
G75*
D01*
G02X1406731Y452120I10589J0*
G01*
D02*
G37*
G36*
X1251580Y472440D02*
G75*
D01*
G02X1251580Y472440I10800J0*
G01*
D02*
G37*
G36*
X1406731Y477520D02*
G75*
D01*
G02X1406731Y477520I10589J0*
G01*
D02*
G37*
G36*
X1251580Y497840D02*
G75*
D01*
G02X1251580Y497840I10800J0*
G01*
D02*
G37*
G36*
X1406731Y502920D02*
G75*
D01*
G02X1406731Y502920I10589J0*
G01*
D02*
G37*
G36*
X1336155Y523240D02*
G75*
D01*
G02X1336155Y523240I10045J0*
G01*
D02*
G37*
G36*
X1263705Y538739D02*
G74*
D01*
G02X1257559Y544885I3755J9901*
G01*
X1257559Y544885D01*
X1263705Y544885D01*
X1263705Y538739D01*
D02*
G37*
G36*
X1277361Y544885D02*
G74*
D01*
G02X1271215Y538739I9901J3755*
G01*
X1271215Y538739D01*
X1271215Y544885D01*
X1277361Y544885D01*
D02*
G37*
G36*
X1257559Y552395D02*
G74*
D01*
G02X1263705Y558541I9901J3755*
G01*
X1263705Y558541D01*
X1263705Y552395D01*
X1257559Y552395D01*
D02*
G37*
G36*
X1271215Y558541D02*
G74*
D01*
G02X1277361Y552395I3755J9901*
G01*
X1277361Y552395D01*
X1271215Y552395D01*
X1271215Y558541D01*
D02*
G37*
G36*
X1263015Y548640D02*
G75*
D01*
G02X1263015Y548640I4445J0*
G01*
D02*
G37*
G36*
X774271Y345440D02*
G75*
D01*
G02X774271Y345440I10589J0*
G01*
D02*
G37*
G36*
X799671Y345440D02*
G75*
D01*
G02X799671Y345440I10589J0*
G01*
D02*
G37*
G36*
X825071Y345440D02*
G75*
D01*
G02X825071Y345440I10589J0*
G01*
D02*
G37*
G36*
X850471Y345440D02*
G75*
D01*
G02X850471Y345440I10589J0*
G01*
D02*
G37*
G36*
X875871Y345440D02*
G75*
D01*
G02X875871Y345440I10589J0*
G01*
D02*
G37*
G36*
X901271Y345440D02*
G75*
D01*
G02X901271Y345440I10589J0*
G01*
D02*
G37*
G36*
X926671Y345440D02*
G75*
D01*
G02X926671Y345440I10589J0*
G01*
D02*
G37*
G36*
X952071Y345440D02*
G75*
D01*
G02X952071Y345440I10589J0*
G01*
D02*
G37*
G36*
X977471Y345440D02*
G75*
D01*
G02X977471Y345440I10589J0*
G01*
D02*
G37*
G36*
X1232159Y349195D02*
G74*
D01*
G02X1238305Y355341I9901J3755*
G01*
X1238305Y355341D01*
X1238305Y349195D01*
X1232159Y349195D01*
D02*
G37*
G36*
X1194257Y161560D02*
G75*
D01*
G02X1202503Y161560I4123J-9160*
G01*
X1202503Y161560D01*
X1198380Y157437D01*
X1194257Y161560D01*
D02*
G37*
G36*
X1119329Y335750D02*
G75*
D01*
G02X1124750Y341171I-4268J9689*
G01*
X1124750Y341171D01*
X1155865Y310056D01*
G74*
D01*
G02X1156993Y307340I2705J2716*
G01*
X1156993Y307340D01*
X1156993Y250508D01*
X1195025Y212476D01*
G75*
D01*
G02X1189604Y207055I3855J-9276*
G01*
X1189604Y207055D01*
X1150449Y246209D01*
G75*
D01*
G02X1149327Y248931I2711J2710*
G01*
X1149327Y248931D01*
X1149327Y305752D01*
X1119329Y335750D01*
D02*
G37*
G36*
X1184255Y242840D02*
G75*
D01*
G02X1184255Y242840I10045J0*
G01*
D02*
G37*
G36*
X1190677Y302800D02*
G75*
D01*
G02X1198923Y302800I4123J-9160*
G01*
X1198923Y302800D01*
X1194800Y298677D01*
X1190677Y302800D01*
D02*
G37*
G36*
X1203960Y297763D02*
G75*
D01*
G02X1203960Y289517I-9160J-4123*
G01*
X1203960Y289517D01*
X1199837Y293640D01*
X1203960Y297763D01*
D02*
G37*
G36*
X1185640Y297763D02*
X1185640Y297763D01*
X1189763Y293640D01*
X1185640Y289517D01*
G75*
D01*
G02X1185640Y297763I9160J4123*
G01*
D02*
G37*
G36*
X1198923Y284480D02*
G75*
D01*
G02X1190677Y284480I-4123J9160*
G01*
X1190677Y284480D01*
X1194800Y288603D01*
X1198923Y284480D01*
D02*
G37*
G36*
X1190300Y293640D02*
G75*
D01*
G02X1190300Y293640I4500J0*
G01*
D02*
G37*
G36*
X1219315Y299720D02*
G75*
D01*
G02X1219315Y299720I10045J0*
G01*
D02*
G37*
G36*
X1028271Y345440D02*
G75*
D01*
G02X1028271Y345440I10589J0*
G01*
D02*
G37*
G36*
X1053671Y345440D02*
G75*
D01*
G02X1053671Y345440I10589J0*
G01*
D02*
G37*
G36*
X1129871Y345440D02*
G75*
D01*
G02X1129871Y345440I10589J0*
G01*
D02*
G37*
G36*
X1155271Y345440D02*
G75*
D01*
G02X1155271Y345440I10589J0*
G01*
D02*
G37*
G36*
X1180671Y345440D02*
G75*
D01*
G02X1180671Y345440I10589J0*
G01*
D02*
G37*
G36*
X1206071Y345440D02*
G75*
D01*
G02X1206071Y345440I10589J0*
G01*
D02*
G37*
G36*
X1238305Y335539D02*
G74*
D01*
G02X1232159Y341685I3755J9901*
G01*
X1232159Y341685D01*
X1238305Y341685D01*
X1238305Y335539D01*
D02*
G37*
G36*
X774271Y548640D02*
G75*
D01*
G02X774271Y548640I10589J0*
G01*
D02*
G37*
G36*
X799671Y548640D02*
G75*
D01*
G02X799671Y548640I10589J0*
G01*
D02*
G37*
G36*
X825071Y548640D02*
G75*
D01*
G02X825071Y548640I10589J0*
G01*
D02*
G37*
G36*
X850471Y548640D02*
G75*
D01*
G02X850471Y548640I10589J0*
G01*
D02*
G37*
G36*
X875871Y548640D02*
G75*
D01*
G02X875871Y548640I10589J0*
G01*
D02*
G37*
G36*
X901271Y548640D02*
G75*
D01*
G02X901271Y548640I10589J0*
G01*
D02*
G37*
G36*
X926671Y548640D02*
G75*
D01*
G02X926671Y548640I10589J0*
G01*
D02*
G37*
G36*
X952071Y548640D02*
G75*
D01*
G02X952071Y548640I10589J0*
G01*
D02*
G37*
G36*
X977471Y548640D02*
G75*
D01*
G02X977471Y548640I10589J0*
G01*
D02*
G37*
G36*
X766695Y584200D02*
G75*
D01*
G02X766695Y584200I10045J0*
G01*
D02*
G37*
G36*
X802255Y584200D02*
G75*
D01*
G02X802255Y584200I10045J0*
G01*
D02*
G37*
G36*
X837815Y584200D02*
G75*
D01*
G02X837815Y584200I10045J0*
G01*
D02*
G37*
G36*
X950728Y597922D02*
G74*
D01*
G02X956558Y603752I9391J3561*
G01*
X956558Y603752D01*
X956558Y597922D01*
X950728Y597922D01*
D02*
G37*
G36*
X955620Y594360D02*
G75*
D01*
G02X955620Y594360I4500J0*
G01*
D02*
G37*
G36*
X956558Y584968D02*
G74*
D01*
G02X950728Y590798I3561J9391*
G01*
X950728Y590798D01*
X956558Y590798D01*
X956558Y584968D01*
D02*
G37*
G36*
X963682Y603752D02*
G74*
D01*
G02X969512Y597922I3561J9391*
G01*
X969512Y597922D01*
X963682Y597922D01*
X963682Y603752D01*
D02*
G37*
G36*
X969512Y590798D02*
G74*
D01*
G02X963682Y584968I9391J3561*
G01*
X963682Y584968D01*
X963682Y590798D01*
X969512Y590798D01*
D02*
G37*
G36*
X780863Y625040D02*
G75*
D01*
G02X772617Y625040I-4123J9160*
G01*
X772617Y625040D01*
X776740Y629163D01*
X780863Y625040D01*
D02*
G37*
G36*
X816423Y625040D02*
G75*
D01*
G02X808177Y625040I-4123J9160*
G01*
X808177Y625040D01*
X812300Y629163D01*
X816423Y625040D01*
D02*
G37*
G36*
X851983Y625040D02*
G75*
D01*
G02X843737Y625040I-4123J9160*
G01*
X843737Y625040D01*
X847860Y629163D01*
X851983Y625040D01*
D02*
G37*
G36*
X587650Y227536D02*
G74*
D01*
G02X593296Y221890I3450J9096*
G01*
X593296Y221890D01*
X587650Y221890D01*
X587650Y227536D01*
D02*
G37*
G36*
X575104Y221890D02*
G74*
D01*
G02X580750Y227536I9096J3450*
G01*
X580750Y227536D01*
X580750Y221890D01*
X575104Y221890D01*
D02*
G37*
G36*
X593296Y214990D02*
G74*
D01*
G02X587650Y209344I9096J3450*
G01*
X587650Y209344D01*
X587650Y214990D01*
X593296Y214990D01*
D02*
G37*
G36*
X579755Y218440D02*
G75*
D01*
G02X579755Y218440I4445J0*
G01*
D02*
G37*
G36*
X580750Y209344D02*
G74*
D01*
G02X575104Y214990I3450J9096*
G01*
X575104Y214990D01*
X580750Y214990D01*
X580750Y209344D01*
D02*
G37*
G36*
X549072Y218440D02*
G75*
D01*
G02X549072Y218440I9728J0*
G01*
D02*
G37*
G36*
X549072Y294640D02*
G75*
D01*
G02X549072Y294640I9728J0*
G01*
D02*
G37*
G36*
X575104Y298090D02*
G74*
D01*
G02X580750Y303736I9096J3450*
G01*
X580750Y303736D01*
X580750Y298090D01*
X575104Y298090D01*
D02*
G37*
G36*
X580750Y285544D02*
G74*
D01*
G02X575104Y291190I3450J9096*
G01*
X575104Y291190D01*
X580750Y291190D01*
X580750Y285544D01*
D02*
G37*
G36*
X579755Y294640D02*
G75*
D01*
G02X579755Y294640I4445J0*
G01*
D02*
G37*
G36*
X587650Y303736D02*
G74*
D01*
G02X593296Y298090I3450J9096*
G01*
X593296Y298090D01*
X587650Y298090D01*
X587650Y303736D01*
D02*
G37*
G36*
X593296Y291190D02*
G74*
D01*
G02X587650Y285544I9096J3450*
G01*
X587650Y285544D01*
X587650Y291190D01*
X593296Y291190D01*
D02*
G37*
G36*
X619875Y314960D02*
G75*
D01*
G02X619875Y314960I10045J0*
G01*
D02*
G37*
G36*
X573611Y350520D02*
G75*
D01*
G02X573611Y350520I10589J0*
G01*
D02*
G37*
G36*
X621871Y345440D02*
G75*
D01*
G02X621871Y345440I10589J0*
G01*
D02*
G37*
G36*
X647271Y345440D02*
G75*
D01*
G02X647271Y345440I10589J0*
G01*
D02*
G37*
G36*
X672671Y345440D02*
G75*
D01*
G02X672671Y345440I10589J0*
G01*
D02*
G37*
G36*
X698071Y345440D02*
G75*
D01*
G02X698071Y345440I10589J0*
G01*
D02*
G37*
G36*
X1028271Y548640D02*
G75*
D01*
G02X1028271Y548640I10589J0*
G01*
D02*
G37*
G36*
X1053671Y548640D02*
G75*
D01*
G02X1053671Y548640I10589J0*
G01*
D02*
G37*
G36*
X1079071Y548640D02*
G75*
D01*
G02X1079071Y548640I10589J0*
G01*
D02*
G37*
G36*
X1104471Y548640D02*
G75*
D01*
G02X1104471Y548640I10589J0*
G01*
D02*
G37*
G36*
X1129871Y548640D02*
G75*
D01*
G02X1129871Y548640I10589J0*
G01*
D02*
G37*
G36*
X1201161Y544885D02*
G74*
D01*
G02X1195015Y538739I9901J3755*
G01*
X1195015Y538739D01*
X1195015Y544885D01*
X1201161Y544885D01*
D02*
G37*
G36*
X1187505Y538739D02*
G74*
D01*
G02X1181359Y544885I3755J9901*
G01*
X1181359Y544885D01*
X1187505Y544885D01*
X1187505Y538739D01*
D02*
G37*
G36*
X1206071Y548640D02*
G75*
D01*
G02X1206071Y548640I10589J0*
G01*
D02*
G37*
G36*
X1195015Y558541D02*
G74*
D01*
G02X1201161Y552395I3755J9901*
G01*
X1201161Y552395D01*
X1195015Y552395D01*
X1195015Y558541D01*
D02*
G37*
G36*
X1181359Y552395D02*
G74*
D01*
G02X1187505Y558541I9901J3755*
G01*
X1187505Y558541D01*
X1187505Y552395D01*
X1181359Y552395D01*
D02*
G37*
G36*
X1186815Y548640D02*
G75*
D01*
G02X1186815Y548640I4445J0*
G01*
D02*
G37*
G36*
X1008500Y574143D02*
G75*
D01*
G02X1005943Y576700I0J2557*
G01*
X1005943Y576700D01*
X1005943Y591700D01*
G75*
D01*
G02X1008500Y594257I2557J0*
G01*
X1008500Y594257D01*
X1023500Y594257D01*
G74*
D01*
G02X1026057Y591700I0J2557*
G01*
X1026057Y591700D01*
X1026057Y576700D01*
G75*
D01*
G02X1023500Y574143I-2557J0*
G01*
X1023500Y574143D01*
X1008500Y574143D01*
D02*
G37*
G36*
X1051675Y584200D02*
G75*
D01*
G02X1051675Y584200I10045J0*
G01*
D02*
G37*
G36*
X543056Y405666D02*
G75*
D01*
G02X543056Y396974I-9655J-4346*
G01*
X543056Y396974D01*
X538710Y401320D01*
X543056Y405666D01*
D02*
G37*
G36*
X528955Y401320D02*
G75*
D01*
G02X528955Y401320I4445J0*
G01*
D02*
G37*
G36*
X574544Y405666D02*
X574544Y405666D01*
X578890Y401320D01*
X574544Y396974D01*
G75*
D01*
G02X574544Y405666I9655J4346*
G01*
D02*
G37*
G36*
X579755Y401320D02*
G75*
D01*
G02X579755Y401320I4445J0*
G01*
D02*
G37*
G36*
X593856Y405666D02*
G75*
D01*
G02X593856Y396974I-9655J-4346*
G01*
X593856Y396974D01*
X589510Y401320D01*
X593856Y405666D01*
D02*
G37*
G36*
X529054Y410976D02*
G75*
D01*
G02X537746Y410976I4346J-9655*
G01*
X537746Y410976D01*
X533400Y406630D01*
X529054Y410976D01*
D02*
G37*
G36*
X579854Y410976D02*
G75*
D01*
G02X588546Y410976I4346J-9655*
G01*
X588546Y410976D01*
X584200Y406630D01*
X579854Y410976D01*
D02*
G37*
G36*
X556082Y452315D02*
G75*
D01*
G02X553525Y449758I-2557J0*
G01*
X553525Y449758D01*
X533595Y449758D01*
G75*
D01*
G02X531038Y452315I0J2557*
G01*
X531038Y452315D01*
X531038Y472245D01*
G75*
D01*
G02X533595Y474802I2557J0*
G01*
X533595Y474802D01*
X553525Y474802D01*
G74*
D01*
G02X556082Y472245I0J2557*
G01*
X556082Y472245D01*
X556082Y452315D01*
D02*
G37*
G36*
X578735Y518160D02*
G75*
D01*
G02X578735Y518160I10045J0*
G01*
D02*
G37*
G36*
X621871Y548640D02*
G75*
D01*
G02X621871Y548640I10589J0*
G01*
D02*
G37*
G36*
X654105Y538739D02*
G74*
D01*
G02X647959Y544885I3755J9901*
G01*
X647959Y544885D01*
X654105Y544885D01*
X654105Y538739D01*
D02*
G37*
G36*
X667761Y544885D02*
G74*
D01*
G02X661615Y538739I9901J3755*
G01*
X661615Y538739D01*
X661615Y544885D01*
X667761Y544885D01*
D02*
G37*
G36*
X672671Y548640D02*
G75*
D01*
G02X672671Y548640I10589J0*
G01*
D02*
G37*
G36*
X698071Y548640D02*
G75*
D01*
G02X698071Y548640I10589J0*
G01*
D02*
G37*
G36*
X723471Y548640D02*
G75*
D01*
G02X723471Y548640I10589J0*
G01*
D02*
G37*
G36*
X592903Y559000D02*
G75*
D01*
G02X584657Y559000I-4123J9160*
G01*
X584657Y559000D01*
X588780Y563123D01*
X592903Y559000D01*
D02*
G37*
G36*
X653415Y548640D02*
G75*
D01*
G02X653415Y548640I4445J0*
G01*
D02*
G37*
G36*
X647959Y552395D02*
G74*
D01*
G02X654105Y558541I9901J3755*
G01*
X654105Y558541D01*
X654105Y552395D01*
X647959Y552395D01*
D02*
G37*
G36*
X661615Y558541D02*
G74*
D01*
G02X667761Y552395I3755J9901*
G01*
X667761Y552395D01*
X661615Y552395D01*
X661615Y558541D01*
D02*
G37*
G36*
X579620Y572283D02*
X579620Y572283D01*
X583743Y568160D01*
X579620Y564037D01*
G75*
D01*
G02X579620Y572283I9160J4123*
G01*
D02*
G37*
G36*
X584657Y577320D02*
G75*
D01*
G02X592903Y577320I4123J-9160*
G01*
X592903Y577320D01*
X588780Y573197D01*
X584657Y577320D01*
D02*
G37*
G36*
X597940Y572283D02*
G75*
D01*
G02X597940Y564037I-9160J-4123*
G01*
X597940Y564037D01*
X593817Y568160D01*
X597940Y572283D01*
D02*
G37*
G36*
X584280Y568160D02*
G75*
D01*
G02X584280Y568160I4500J0*
G01*
D02*
G37*
G36*
X670075Y608700D02*
G75*
D01*
G02X670075Y608700I10045J0*
G01*
D02*
G37*
G36*
X734243Y599540D02*
G75*
D01*
G02X725997Y599540I-4123J9160*
G01*
X725997Y599540D01*
X730120Y603663D01*
X734243Y599540D01*
D02*
G37*
G36*
X588323Y615680D02*
G75*
D01*
G02X580077Y615680I-4123J9160*
G01*
X580077Y615680D01*
X584200Y619803D01*
X588323Y615680D01*
D02*
G37*
G36*
X739280Y612823D02*
G75*
D01*
G02X739280Y604577I-9160J-4123*
G01*
X739280Y604577D01*
X735157Y608700D01*
X739280Y612823D01*
D02*
G37*
G36*
X720960Y612823D02*
X720960Y612823D01*
X725083Y608700D01*
X720960Y604577D01*
G75*
D01*
G02X720960Y612823I9160J4123*
G01*
D02*
G37*
G36*
X725997Y617860D02*
G75*
D01*
G02X734243Y617860I4123J-9160*
G01*
X734243Y617860D01*
X730120Y613737D01*
X725997Y617860D01*
D02*
G37*
G36*
X725620Y608700D02*
G75*
D01*
G02X725620Y608700I4500J0*
G01*
D02*
G37*
G36*
X579700Y624840D02*
G75*
D01*
G02X579700Y624840I4500J0*
G01*
D02*
G37*
G36*
X575040Y628963D02*
X575040Y628963D01*
X579163Y624840D01*
X575040Y620717D01*
G75*
D01*
G02X575040Y628963I9160J4123*
G01*
D02*
G37*
G36*
X580077Y634000D02*
G75*
D01*
G02X588323Y634000I4123J-9160*
G01*
X588323Y634000D01*
X584200Y629877D01*
X580077Y634000D01*
D02*
G37*
G36*
X593360Y628963D02*
G75*
D01*
G02X593360Y620717I-9160J-4123*
G01*
X593360Y620717D01*
X589237Y624840D01*
X593360Y628963D01*
D02*
G37*
%LPD*%
G36*
X608307Y940232D02*
X608307Y940232D01*
X608307Y680720D01*
X593366Y680720D01*
G75*
D01*
G03X579120Y683993I-8666J-5080*
G01*
X579120Y683993D01*
X579120Y1112520D01*
X1483360Y1112520D01*
X1483360Y680720D01*
X1352905Y680720D01*
G75*
D01*
G03X1339495Y680720I-6705J-7480*
G01*
X1339495Y680720D01*
X1316073Y680720D01*
G75*
D01*
G03X1315220Y685643I-10012J801*
G01*
X1315220Y685643D01*
X1311097Y681520D01*
X1311897Y680720D01*
X1310488Y680720D01*
G75*
D01*
G03X1301632Y680720I-4428J796*
G01*
X1301632Y680720D01*
X1300223Y680720D01*
X1301023Y681520D01*
X1296900Y685643D01*
G75*
D01*
G03X1296047Y680720I9160J-4123*
G01*
X1296047Y680720D01*
X1071777Y680720D01*
X1071777Y681967D01*
X1158240Y681967D01*
G74*
D01*
G03X1160956Y683095I0J3833*
G01*
X1160956Y683095D01*
X1199324Y721463D01*
X1211460Y721463D01*
G75*
D01*
G03X1214017Y724020I0J2557*
G01*
X1214017Y724020D01*
X1214017Y739020D01*
G74*
D01*
G03X1211460Y741577I2557J0*
G01*
X1211460Y741577D01*
X1196460Y741577D01*
G75*
D01*
G03X1193903Y739020I0J-2557*
G01*
X1193903Y739020D01*
X1193903Y726884D01*
X1156652Y689633D01*
X1071777Y689633D01*
X1071777Y693300D01*
G74*
D01*
G03X1069220Y695857I2557J0*
G01*
X1069220Y695857D01*
X1054220Y695857D01*
G75*
D01*
G03X1051663Y693300I0J-2557*
G01*
X1051663Y693300D01*
X1051663Y681164D01*
X1051219Y680720D01*
X1024666Y680720D01*
G74*
D01*
G03X1025392Y682238I8667J5078*
G01*
X1025392Y682238D01*
X1019562Y682238D01*
X1019562Y680720D01*
X1012438Y680720D01*
X1012438Y682238D01*
X1006608Y682238D01*
G74*
D01*
G03X1007334Y680720I9392J3559*
G01*
X1007334Y680720D01*
X648746Y680720D01*
G75*
D01*
G03X631414Y680720I-8666J-5080*
G01*
X631414Y680720D01*
X615973Y680720D01*
X615973Y938652D01*
X676565Y999244D01*
G75*
D01*
G03X671144Y1004665I3855J9276*
G01*
X671144Y1004665D01*
X609429Y942951D01*
G75*
D01*
G03X608307Y940232I2711J-2710*
G01*
D02*
G37*
%LPC*%
G36*
X764463Y848782D02*
G75*
D01*
G03X764463Y848782I-2463J9738*
G01*
D02*
G37*
G36*
X764463Y1004754D02*
G75*
D01*
G03X764463Y1004754I-2463J3766*
G01*
D02*
G37*
G36*
X766123Y999360D02*
X766123Y999360D01*
X762000Y1003483D01*
X757877Y999360D01*
G75*
D01*
G03X766123Y999360I4123J9160*
G01*
D02*
G37*
G36*
X766123Y1017680D02*
G75*
D01*
G03X757877Y1017680I-4123J-9160*
G01*
X757877Y1017680D01*
X762000Y1013557D01*
X766123Y1017680D01*
D02*
G37*
G36*
X1244463Y735655D02*
G75*
D01*
G03X1244463Y735655I5217J-9215*
G01*
D02*
G37*
G36*
X1248433Y924560D02*
G74*
D01*
G03X1247305Y927276I3833J0*
G01*
X1247305Y927276D01*
X1244463Y930119D01*
X1244463Y930119D01*
X1157356Y1017225D01*
G75*
D01*
G03X1151935Y1011804I-9276J3855*
G01*
X1151935Y1011804D01*
X1240767Y922972D01*
X1240767Y817505D01*
G75*
D01*
G03X1248433Y817505I3833J-9285*
G01*
X1248433Y817505D01*
X1248433Y924560D01*
D02*
G37*
G36*
X1285153Y927139D02*
G75*
D01*
G03X1277487Y927139I-3833J8740*
G01*
X1277487Y927139D01*
X1277487Y821506D01*
G75*
D01*
G03X1278609Y818789I3833J-7*
G01*
X1278609Y818789D01*
X1285324Y812075D01*
G75*
D01*
G03X1290745Y817496I9276J-3855*
G01*
X1290745Y817496D01*
X1285153Y823088D01*
X1285153Y927139D01*
D02*
G37*
G36*
X1239479Y703685D02*
X1239479Y703685D01*
X1239479Y698395D01*
G75*
D01*
G03X1247035Y690839I7556J0*
G01*
X1247035Y690839D01*
X1252325Y690839D01*
G75*
D01*
G03X1259881Y698395I0J7556*
G01*
X1259881Y698395D01*
X1259881Y703685D01*
G74*
D01*
G03X1252325Y711241I7556J0*
G01*
X1252325Y711241D01*
X1247035Y711241D01*
G75*
D01*
G03X1239479Y703685I0J-7556*
G01*
D02*
G37*
G36*
X1100835Y722907D02*
G75*
D01*
G03X1100835Y730573I9285J3833*
G01*
X1100835Y730573D01*
X990906Y730573D01*
G75*
D01*
G03X988189Y729451I-7J-3833*
G01*
X988189Y729451D01*
X964756Y706017D01*
X952620Y706017D01*
G75*
D01*
G03X950063Y703460I0J-2557*
G01*
X950063Y703460D01*
X950063Y688460D01*
G75*
D01*
G03X952620Y685903I2557J0*
G01*
X952620Y685903D01*
X967620Y685903D01*
G75*
D01*
G03X970177Y688460I0J2557*
G01*
X970177Y688460D01*
X970177Y700596D01*
X992488Y722907D01*
X1100835Y722907D01*
D02*
G37*
G36*
X861143Y877840D02*
G75*
D01*
G03X852897Y877840I-4123J-9160*
G01*
X852897Y877840D01*
X857020Y873717D01*
X861143Y877840D01*
D02*
G37*
G36*
X1157249Y875183D02*
G75*
D01*
G03X1157249Y875183I-9169J-4103*
G01*
D02*
G37*
G36*
X1111512Y875183D02*
G75*
D01*
G03X1111512Y875183I-4072J-9183*
G01*
D02*
G37*
G36*
X696353Y698310D02*
X696353Y698310D01*
X692230Y702432D01*
X688107Y698310D01*
G75*
D01*
G03X696353Y698310I4123J9160*
G01*
D02*
G37*
G36*
X701390Y711593D02*
X701390Y711593D01*
X697267Y707470D01*
X701390Y703347D01*
G75*
D01*
G03X701390Y711593I-9160J4123*
G01*
D02*
G37*
G36*
X683070Y711593D02*
G75*
D01*
G03X683070Y703347I9160J-4123*
G01*
X683070Y703347D01*
X687193Y707470D01*
X683070Y711593D01*
D02*
G37*
G36*
X688107Y716630D02*
X688107Y716630D01*
X692230Y712507D01*
X696353Y716630D01*
G75*
D01*
G03X688107Y716630I-4123J-9160*
G01*
D02*
G37*
G36*
X687730Y707470D02*
G75*
D01*
G03X687730Y707470I4500J0*
G01*
D02*
G37*
G36*
X630035Y825640D02*
G75*
D01*
G03X630035Y825640I10045J0*
G01*
D02*
G37*
G36*
X670375Y858520D02*
G75*
D01*
G03X670375Y858520I10045J0*
G01*
D02*
G37*
G36*
X607135Y976260D02*
G75*
D01*
G03X607135Y976260I9545J0*
G01*
D02*
G37*
G36*
X607976Y1005177D02*
G75*
D01*
G03X607976Y997343I8703J-3917*
G01*
X607976Y997343D01*
X611893Y1001260D01*
X607976Y1005177D01*
D02*
G37*
G36*
X620597Y992556D02*
X620597Y992556D01*
X616680Y996473D01*
X612763Y992556D01*
G75*
D01*
G03X620597Y992556I3917J8703*
G01*
D02*
G37*
G36*
X612680Y1001260D02*
G75*
D01*
G03X612680Y1001260I4000J0*
G01*
D02*
G37*
G36*
X625384Y1005177D02*
X625384Y1005177D01*
X621467Y1001260D01*
X625384Y997343D01*
G75*
D01*
G03X625384Y1005177I-8703J3917*
G01*
D02*
G37*
G36*
X612763Y1009964D02*
X612763Y1009964D01*
X616680Y1006047D01*
X620597Y1009964D01*
G75*
D01*
G03X612763Y1009964I-3917J-8703*
G01*
D02*
G37*
G36*
X752840Y1012643D02*
G75*
D01*
G03X752840Y1004397I9160J-4123*
G01*
X752840Y1004397D01*
X756963Y1008520D01*
X752840Y1012643D01*
D02*
G37*
G36*
X1301937Y690680D02*
X1301937Y690680D01*
X1306060Y686557D01*
X1310183Y690680D01*
G75*
D01*
G03X1301937Y690680I-4123J-9160*
G01*
D02*
G37*
G36*
X1296015Y731520D02*
G75*
D01*
G03X1296015Y731520I10045J0*
G01*
D02*
G37*
G36*
X890457Y873560D02*
X890457Y873560D01*
X894580Y869437D01*
X898703Y873560D01*
G75*
D01*
G03X890457Y873560I-4123J-9160*
G01*
D02*
G37*
G36*
X832185Y707470D02*
G75*
D01*
G03X832185Y707470I10045J0*
G01*
D02*
G37*
G36*
X905453Y696820D02*
G75*
D01*
G03X905453Y696820I10045J0*
G01*
D02*
G37*
G36*
X950075Y726740D02*
G75*
D01*
G03X950075Y726740I10045J0*
G01*
D02*
G37*
G36*
X861143Y859520D02*
X861143Y859520D01*
X857020Y863643D01*
X852897Y859520D01*
G75*
D01*
G03X861143Y859520I4123J9160*
G01*
D02*
G37*
G36*
X890080Y864400D02*
G75*
D01*
G03X890080Y864400I4500J0*
G01*
D02*
G37*
G36*
X898703Y855240D02*
X898703Y855240D01*
X894580Y859363D01*
X890457Y855240D01*
G75*
D01*
G03X898703Y855240I4123J9160*
G01*
D02*
G37*
G36*
X852520Y868680D02*
G75*
D01*
G03X852520Y868680I4500J0*
G01*
D02*
G37*
G36*
X847860Y872803D02*
G75*
D01*
G03X847860Y864557I9160J-4123*
G01*
X847860Y864557D01*
X851983Y868680D01*
X847860Y872803D01*
D02*
G37*
G36*
X866180Y872803D02*
X866180Y872803D01*
X862057Y868680D01*
X866180Y864557D01*
G75*
D01*
G03X866180Y872803I-9160J4123*
G01*
D02*
G37*
G36*
X903740Y868523D02*
X903740Y868523D01*
X899617Y864400D01*
X903740Y860277D01*
G75*
D01*
G03X903740Y868523I-9160J4123*
G01*
D02*
G37*
G36*
X885420Y868523D02*
G75*
D01*
G03X885420Y860277I9160J-4123*
G01*
X885420Y860277D01*
X889543Y864400D01*
X885420Y868523D01*
D02*
G37*
G36*
X1019562Y695192D02*
X1019562Y695192D01*
X1019562Y689362D01*
X1025392Y689362D01*
G74*
D01*
G03X1019562Y695192I9391J3561*
G01*
D02*
G37*
G36*
X1011500Y685800D02*
G75*
D01*
G03X1011500Y685800I4500J0*
G01*
D02*
G37*
G36*
X1006608Y689362D02*
X1006608Y689362D01*
X1012438Y689362D01*
X1012438Y695192D01*
G74*
D01*
G03X1006608Y689362I3561J9391*
G01*
D02*
G37*
G36*
X1305237Y927176D02*
X1305237Y927176D01*
X1301320Y931093D01*
X1297403Y927176D01*
G75*
D01*
G03X1305237Y927176I3917J8703*
G01*
D02*
G37*
G36*
X1297320Y935880D02*
G75*
D01*
G03X1297320Y935880I4000J0*
G01*
D02*
G37*
G36*
X1292616Y939797D02*
G75*
D01*
G03X1292616Y931963I8703J-3917*
G01*
X1292616Y931963D01*
X1296533Y935880D01*
X1292616Y939797D01*
D02*
G37*
G36*
X1310024Y939797D02*
X1310024Y939797D01*
X1306107Y935880D01*
X1310024Y931963D01*
G75*
D01*
G03X1310024Y939797I-8703J3917*
G01*
D02*
G37*
G36*
X1297403Y944584D02*
X1297403Y944584D01*
X1301320Y940667D01*
X1305237Y944584D01*
G75*
D01*
G03X1297403Y944584I-3917J-8703*
G01*
D02*
G37*
G36*
X1445415Y1092200D02*
G75*
D01*
G03X1445415Y1092200I15085J0*
G01*
D02*
G37*
G36*
X846975Y918680D02*
G75*
D01*
G03X846975Y918680I10045J0*
G01*
D02*
G37*
G36*
X884535Y914400D02*
G75*
D01*
G03X884535Y914400I10045J0*
G01*
D02*
G37*
G36*
X909435Y949960D02*
G75*
D01*
G03X909435Y949960I10045J0*
G01*
D02*
G37*
G36*
X854940Y965043D02*
G75*
D01*
G03X854940Y956797I9160J-4123*
G01*
X854940Y956797D01*
X859063Y960920D01*
X854940Y965043D01*
D02*
G37*
G36*
X868223Y951760D02*
X868223Y951760D01*
X864100Y955883D01*
X859977Y951760D01*
G75*
D01*
G03X868223Y951760I4123J9160*
G01*
D02*
G37*
G36*
X859600Y960920D02*
G75*
D01*
G03X859600Y960920I4500J0*
G01*
D02*
G37*
G36*
X873260Y965043D02*
X873260Y965043D01*
X869137Y960920D01*
X873260Y956797D01*
G75*
D01*
G03X873260Y965043I-9160J4123*
G01*
D02*
G37*
G36*
X859977Y970080D02*
X859977Y970080D01*
X864100Y965957D01*
X868223Y970080D01*
G75*
D01*
G03X859977Y970080I-4123J-9160*
G01*
D02*
G37*
G36*
X909435Y985920D02*
G75*
D01*
G03X909435Y985920I10045J0*
G01*
D02*
G37*
G36*
X771160Y1012643D02*
X771160Y1012643D01*
X767037Y1008520D01*
X771160Y1004397D01*
G75*
D01*
G03X771160Y1012643I-9160J4123*
G01*
D02*
G37*
G36*
X854055Y1010920D02*
G75*
D01*
G03X854055Y1010920I10045J0*
G01*
D02*
G37*
G36*
X909435Y1010920D02*
G75*
D01*
G03X909435Y1010920I10045J0*
G01*
D02*
G37*
G36*
X1059435Y949960D02*
G75*
D01*
G03X1059435Y949960I10045J0*
G01*
D02*
G37*
G36*
X1097395Y1016000D02*
G75*
D01*
G03X1097395Y1016000I10045J0*
G01*
D02*
G37*
%LPD*%
G36*
X1273482Y608025D02*
G74*
D01*
G02X1268425Y613082I4138J9195*
G01*
X1268425Y613082D01*
X1264943Y609600D01*
G74*
D01*
G02X1270000Y604543I23J5080*
G01*
X1270000Y604543D01*
X1273482Y608025D01*
D02*
G37*
G54D11*
X764463Y848782D02*
G75*
D01*
G03X764463Y848782I-2463J9738*
G01*
X764463Y1004754D02*
G75*
D01*
G03X764463Y1004754I-2463J3766*
G01*
X766123Y999360D02*
X762000Y1003483D01*
X757877Y999360D01*
G75*
D01*
G03X766123Y999360I4123J9160*
G01*
X766123Y1017680D02*
G75*
D01*
G03X757877Y1017680I-4123J-9160*
G01*
X762000Y1013557D01*
X766123Y1017680D01*
X1244463Y735655D02*
G75*
D01*
G03X1244463Y735655I5217J-9215*
G01*
X1248433Y924560D02*
G74*
D01*
G03X1247305Y927276I3833J0*
G01*
X1244463Y930119D01*
X1244463Y930119D01*
X1157356Y1017225D01*
G75*
D01*
G03X1151935Y1011804I-9276J3855*
G01*
X1240767Y922972D01*
X1240767Y817505D01*
G75*
D01*
G03X1248433Y817505I3833J-9285*
G01*
X1248433Y924560D01*
X1285153Y927139D02*
G75*
D01*
G03X1277487Y927139I-3833J8740*
G01*
X1277487Y821506D01*
G75*
D01*
G03X1278609Y818789I3833J-7*
G01*
X1285324Y812075D01*
G75*
D01*
G03X1290745Y817496I9276J-3855*
G01*
X1285153Y823088D01*
X1285153Y927139D01*
X1239479Y703685D02*
X1239479Y698395D01*
G75*
D01*
G03X1247035Y690839I7556J0*
G01*
X1252325Y690839D01*
G75*
D01*
G03X1259881Y698395I0J7556*
G01*
X1259881Y703685D01*
G74*
D01*
G03X1252325Y711241I7556J0*
G01*
X1247035Y711241D01*
G75*
D01*
G03X1239479Y703685I0J-7556*
G01*
X1100835Y722907D02*
G75*
D01*
G03X1100835Y730573I9285J3833*
G01*
X990906Y730573D01*
G75*
D01*
G03X988189Y729451I-7J-3833*
G01*
X964756Y706017D01*
X952620Y706017D01*
G75*
D01*
G03X950063Y703460I0J-2557*
G01*
X950063Y688460D01*
G75*
D01*
G03X952620Y685903I2557J0*
G01*
X967620Y685903D01*
G75*
D01*
G03X970177Y688460I0J2557*
G01*
X970177Y700596D01*
X992488Y722907D01*
X1100835Y722907D01*
X861143Y877840D02*
G75*
D01*
G03X852897Y877840I-4123J-9160*
G01*
X857020Y873717D01*
X861143Y877840D01*
X1157249Y875183D02*
G75*
D01*
G03X1157249Y875183I-9169J-4103*
G01*
X1111512Y875183D02*
G75*
D01*
G03X1111512Y875183I-4072J-9183*
G01*
X696353Y698310D02*
X692230Y702432D01*
X688107Y698310D01*
G75*
D01*
G03X696353Y698310I4123J9160*
G01*
X701390Y711593D02*
X697267Y707470D01*
X701390Y703347D01*
G75*
D01*
G03X701390Y711593I-9160J4123*
G01*
X683070Y711593D02*
G75*
D01*
G03X683070Y703347I9160J-4123*
G01*
X687193Y707470D01*
X683070Y711593D01*
X688107Y716630D02*
X692230Y712507D01*
X696353Y716630D01*
G75*
D01*
G03X688107Y716630I-4123J-9160*
G01*
X687730Y707470D02*
G75*
D01*
G03X687730Y707470I4500J0*
G01*
X630035Y825640D02*
G75*
D01*
G03X630035Y825640I10045J0*
G01*
X670375Y858520D02*
G75*
D01*
G03X670375Y858520I10045J0*
G01*
X607135Y976260D02*
G75*
D01*
G03X607135Y976260I9545J0*
G01*
X607976Y1005177D02*
G75*
D01*
G03X607976Y997343I8703J-3917*
G01*
X611893Y1001260D01*
X607976Y1005177D01*
X620597Y992556D02*
X616680Y996473D01*
X612763Y992556D01*
G75*
D01*
G03X620597Y992556I3917J8703*
G01*
X612680Y1001260D02*
G75*
D01*
G03X612680Y1001260I4000J0*
G01*
X625384Y1005177D02*
X621467Y1001260D01*
X625384Y997343D01*
G75*
D01*
G03X625384Y1005177I-8703J3917*
G01*
X612763Y1009964D02*
X616680Y1006047D01*
X620597Y1009964D01*
G75*
D01*
G03X612763Y1009964I-3917J-8703*
G01*
X752840Y1012643D02*
G75*
D01*
G03X752840Y1004397I9160J-4123*
G01*
X756963Y1008520D01*
X752840Y1012643D01*
X1301937Y690680D02*
X1306060Y686557D01*
X1310183Y690680D01*
G75*
D01*
G03X1301937Y690680I-4123J-9160*
G01*
X1296015Y731520D02*
G75*
D01*
G03X1296015Y731520I10045J0*
G01*
X890457Y873560D02*
X894580Y869437D01*
X898703Y873560D01*
G75*
D01*
G03X890457Y873560I-4123J-9160*
G01*
X832185Y707470D02*
G75*
D01*
G03X832185Y707470I10045J0*
G01*
X905453Y696820D02*
G75*
D01*
G03X905453Y696820I10045J0*
G01*
X950075Y726740D02*
G75*
D01*
G03X950075Y726740I10045J0*
G01*
X861143Y859520D02*
X857020Y863643D01*
X852897Y859520D01*
G75*
D01*
G03X861143Y859520I4123J9160*
G01*
X890080Y864400D02*
G75*
D01*
G03X890080Y864400I4500J0*
G01*
X898703Y855240D02*
X894580Y859363D01*
X890457Y855240D01*
G75*
D01*
G03X898703Y855240I4123J9160*
G01*
X852520Y868680D02*
G75*
D01*
G03X852520Y868680I4500J0*
G01*
X847860Y872803D02*
G75*
D01*
G03X847860Y864557I9160J-4123*
G01*
X851983Y868680D01*
X847860Y872803D01*
X866180Y872803D02*
X862057Y868680D01*
X866180Y864557D01*
G75*
D01*
G03X866180Y872803I-9160J4123*
G01*
X903740Y868523D02*
X899617Y864400D01*
X903740Y860277D01*
G75*
D01*
G03X903740Y868523I-9160J4123*
G01*
X885420Y868523D02*
G75*
D01*
G03X885420Y860277I9160J-4123*
G01*
X889543Y864400D01*
X885420Y868523D01*
X1019562Y695192D02*
X1019562Y689362D01*
X1025392Y689362D01*
G74*
D01*
G03X1019562Y695192I9391J3561*
G01*
X1011500Y685800D02*
G75*
D01*
G03X1011500Y685800I4500J0*
G01*
X1006608Y689362D02*
X1012438Y689362D01*
X1012438Y695192D01*
G74*
D01*
G03X1006608Y689362I3561J9391*
G01*
X1305237Y927176D02*
X1301320Y931093D01*
X1297403Y927176D01*
G75*
D01*
G03X1305237Y927176I3917J8703*
G01*
X1297320Y935880D02*
G75*
D01*
G03X1297320Y935880I4000J0*
G01*
X1292616Y939797D02*
G75*
D01*
G03X1292616Y931963I8703J-3917*
G01*
X1296533Y935880D01*
X1292616Y939797D01*
X1310024Y939797D02*
X1306107Y935880D01*
X1310024Y931963D01*
G75*
D01*
G03X1310024Y939797I-8703J3917*
G01*
X1297403Y944584D02*
X1301320Y940667D01*
X1305237Y944584D01*
G75*
D01*
G03X1297403Y944584I-3917J-8703*
G01*
X1445415Y1092200D02*
G75*
D01*
G03X1445415Y1092200I15085J0*
G01*
X846975Y918680D02*
G75*
D01*
G03X846975Y918680I10045J0*
G01*
X884535Y914400D02*
G75*
D01*
G03X884535Y914400I10045J0*
G01*
X909435Y949960D02*
G75*
D01*
G03X909435Y949960I10045J0*
G01*
X854940Y965043D02*
G75*
D01*
G03X854940Y956797I9160J-4123*
G01*
X859063Y960920D01*
X854940Y965043D01*
X868223Y951760D02*
X864100Y955883D01*
X859977Y951760D01*
G75*
D01*
G03X868223Y951760I4123J9160*
G01*
X859600Y960920D02*
G75*
D01*
G03X859600Y960920I4500J0*
G01*
X873260Y965043D02*
X869137Y960920D01*
X873260Y956797D01*
G75*
D01*
G03X873260Y965043I-9160J4123*
G01*
X859977Y970080D02*
X864100Y965957D01*
X868223Y970080D01*
G75*
D01*
G03X859977Y970080I-4123J-9160*
G01*
X909435Y985920D02*
G75*
D01*
G03X909435Y985920I10045J0*
G01*
X771160Y1012643D02*
X767037Y1008520D01*
X771160Y1004397D01*
G75*
D01*
G03X771160Y1012643I-9160J4123*
G01*
X854055Y1010920D02*
G75*
D01*
G03X854055Y1010920I10045J0*
G01*
X909435Y1010920D02*
G75*
D01*
G03X909435Y1010920I10045J0*
G01*
X1059435Y949960D02*
G75*
D01*
G03X1059435Y949960I10045J0*
G01*
X1097395Y1016000D02*
G75*
D01*
G03X1097395Y1016000I10045J0*
G01*
X608307Y940232D02*
X608307Y680720D01*
X593366Y680720D01*
G75*
D01*
G03X579120Y683993I-8666J-5080*
G01*
X579120Y1112520D01*
X1483360Y1112520D01*
X1483360Y680720D01*
X1352905Y680720D01*
G75*
D01*
G03X1339495Y680720I-6705J-7480*
G01*
X1316073Y680720D01*
G75*
D01*
G03X1315220Y685643I-10012J801*
G01*
X1311097Y681520D01*
X1311897Y680720D01*
X1310488Y680720D01*
G75*
D01*
G03X1301632Y680720I-4428J796*
G01*
X1300223Y680720D01*
X1301023Y681520D01*
X1296900Y685643D01*
G75*
D01*
G03X1296047Y680720I9160J-4123*
G01*
X1071777Y680720D01*
X1071777Y681967D01*
X1158240Y681967D01*
G74*
D01*
G03X1160956Y683095I0J3833*
G01*
X1199324Y721463D01*
X1211460Y721463D01*
G75*
D01*
G03X1214017Y724020I0J2557*
G01*
X1214017Y739020D01*
G74*
D01*
G03X1211460Y741577I2557J0*
G01*
X1196460Y741577D01*
G75*
D01*
G03X1193903Y739020I0J-2557*
G01*
X1193903Y726884D01*
X1156652Y689633D01*
X1071777Y689633D01*
X1071777Y693300D01*
G74*
D01*
G03X1069220Y695857I2557J0*
G01*
X1054220Y695857D01*
G75*
D01*
G03X1051663Y693300I0J-2557*
G01*
X1051663Y681164D01*
X1051219Y680720D01*
X1024666Y680720D01*
G74*
D01*
G03X1025392Y682238I8667J5078*
G01*
X1019562Y682238D01*
X1019562Y680720D01*
X1012438Y680720D01*
X1012438Y682238D01*
X1006608Y682238D01*
G74*
D01*
G03X1007334Y680720I9392J3559*
G01*
X648746Y680720D01*
G75*
D01*
G03X631414Y680720I-8666J-5080*
G01*
X615973Y680720D01*
X615973Y938652D01*
X676565Y999244D01*
G75*
D01*
G03X671144Y1004665I3855J9276*
G01*
X609429Y942951D01*
G75*
D01*
G03X608307Y940232I2711J-2710*
G01*
X741680Y-59713D02*
G75*
D01*
G02X737847Y-55880I0J3833*
G01*
X737847Y-52388D01*
X730709Y-45250D01*
G75*
D01*
G02X736130Y-39829I-4268J9689*
G01*
X744385Y-48084D01*
G74*
D01*
G02X745513Y-50800I2705J2716*
G01*
X745513Y-52047D01*
X783195Y-52047D01*
G75*
D01*
G02X801765Y-52047I9285J-3833*
G01*
X1159192Y-52047D01*
X1164567Y-46672D01*
X1164567Y-45431D01*
G75*
D01*
G02X1172233Y-45431I3833J9871*
G01*
X1172233Y-48260D01*
G75*
D01*
G02X1171105Y-50976I-3833J0*
G01*
X1163496Y-58585D01*
G74*
D01*
G02X1161912Y-59542I2715J2705*
G01*
G75*
D01*
G02X1160774Y-59713I-1132J3661*
G01*
X801765Y-59713D01*
G75*
D01*
G02X783195Y-59713I-9285J3833*
G01*
X741680Y-59713D01*
X1274512Y626812D02*
G75*
D01*
G02X1274512Y607628I3105J-9592*
G01*
G75*
D01*
G02X1274115Y600382I-9591J-3108*
G01*
X1270000Y604497D01*
G74*
D01*
G02X1264943Y599440I5080J23*
G01*
X1269058Y595325D01*
G75*
D01*
G02X1260782Y595325I-4138J9195*
G01*
X1264897Y599440D01*
G74*
D01*
G02X1259840Y604497I23J5080*
G01*
X1255725Y600382D01*
G75*
D01*
G02X1255725Y608658I9195J4138*
G01*
X1259840Y604543D01*
G74*
D01*
G02X1264897Y609600I5080J23*
G01*
X1260782Y613715D01*
G75*
D01*
G02X1268028Y614112I4138J-9195*
G01*
G75*
D01*
G02X1268028Y620328I9591J3108*
G01*
G75*
D01*
G02X1274512Y626812I-3107J9591*
G01*
X781131Y635183D02*
G75*
D01*
G02X781131Y635183I-4391J-983*
G01*
X785900Y630077D02*
X781777Y634200D01*
X782760Y635183D01*
X782760Y635183D01*
X782768Y635190D01*
X785900Y638323D01*
G75*
D01*
G02X785900Y630077I-9160J-4123*
G01*
X803140Y630077D02*
G75*
D01*
G02X803140Y638323I9160J4123*
G01*
X806280Y635183D01*
X806280Y635183D01*
X807263Y634200D01*
X803140Y630077D01*
X816691Y635183D02*
G75*
D01*
G02X816691Y635183I-4391J-983*
G01*
X821460Y630077D02*
X817337Y634200D01*
X818320Y635183D01*
X818320Y635183D01*
X821460Y638323D01*
G75*
D01*
G02X821460Y630077I-9160J-4123*
G01*
X838700Y630077D02*
G75*
D01*
G02X838700Y638323I9160J4123*
G01*
X841840Y635183D01*
X841840Y635183D01*
X842823Y634200D01*
X838700Y630077D01*
X852251Y635183D02*
G75*
D01*
G02X852251Y635183I-4391J-983*
G01*
X857020Y630077D02*
X852897Y634200D01*
X853880Y635183D01*
X853880Y635183D01*
X857020Y638323D01*
G75*
D01*
G02X857020Y630077I-9160J-4123*
G01*
X767580Y630077D02*
G75*
D01*
G02X767580Y638323I9160J4123*
G01*
X770720Y635183D01*
X770720Y635183D01*
X771703Y634200D01*
X767580Y630077D01*
X1004463Y543056D02*
G75*
D01*
G02X1004463Y543056I8997J5584*
G01*
X1244463Y558953D02*
G75*
D01*
G02X1244463Y558953I-2403J-10313*
G01*
X1195404Y635183D02*
G75*
D01*
G02X1195404Y635183I8556J-5263*
G01*
X1110261Y649617D02*
G75*
D01*
G02X1111974Y658731I-7901J6203*
G01*
G74*
D01*
G02X1112198Y658523I2494J2911*
G01*
X1135539Y635183D01*
X1135539Y635183D01*
X1168563Y602158D01*
G74*
D01*
G02X1169693Y599440I2703J2718*
G01*
X1169693Y558511D01*
G75*
D01*
G02X1162027Y558511I-3833J-9871*
G01*
X1162027Y597852D01*
X1124696Y635183D01*
X1110261Y649617D01*
X524463Y473086D02*
G75*
D01*
G02X524463Y473086I-6303J-10806*
G01*
X523744Y396974D02*
G75*
D01*
G02X523744Y405666I9655J4346*
G01*
X528090Y401320D01*
X523744Y396974D01*
X1004463Y-29644D02*
G75*
D01*
G02X1004463Y-29644I-8783J-5916*
G01*
X524463Y298482D02*
G75*
D01*
G02X524463Y298482I8937J-3842*
G01*
X421405Y162941D02*
G75*
D01*
G02X421875Y162941I235J13842*
G01*
G75*
D01*
G02X421405Y162941I-235J-13842*
G01*
X511611Y303673D02*
X529567Y321628D01*
X529567Y340649D01*
G75*
D01*
G02X537233Y340649I3833J9871*
G01*
X537233Y320040D01*
G75*
D01*
G02X536105Y317324I-3833J0*
G01*
X524463Y305681D01*
X517033Y298251D01*
G75*
D01*
G02X511833Y285699I-9033J-3611*
G01*
X511833Y227381D01*
G75*
D01*
G02X504389Y209407I-3722J-8987*
G01*
X473733Y178752D01*
X473733Y39688D01*
X503427Y9994D01*
G75*
D01*
G02X498565Y-9276I-1013J-9993*
G01*
X491513Y-16328D01*
X491513Y-26275D01*
G75*
D01*
G02X496956Y-39415I-3833J-9285*
G01*
X514668Y-57127D01*
X674052Y-57127D01*
X691350Y-39829D01*
G75*
D01*
G02X696771Y-45250I9689J4268*
G01*
X678356Y-63665D01*
G74*
D01*
G02X676920Y-64573I2716J2705*
G01*
G75*
D01*
G02X675633Y-64793I-1280J3613*
G01*
X513080Y-64793D01*
G75*
D01*
G02X512560Y-64758I-3J3833*
G01*
G74*
D01*
G02X510369Y-63671I519J3798*
G01*
X491535Y-44836D01*
G75*
D01*
G02X483847Y-26275I-3844J9281*
G01*
X483847Y-14750D01*
G75*
D01*
G02X484969Y-12029I3833J11*
G01*
X493144Y-3855D01*
G75*
D01*
G02X495397Y7182I9276J3855*
G01*
X467189Y35389D01*
G75*
D01*
G02X466067Y38111I2711J2710*
G01*
X466067Y180334D01*
G75*
D01*
G02X467189Y183051I3833J7*
G01*
X498745Y214607D01*
X425768Y214607D01*
X397025Y185864D01*
X397025Y176245D01*
G75*
D01*
G02X393427Y149098I-3832J-13304*
G01*
G75*
D01*
G02X393427Y121412I-166J-13843*
G01*
G75*
D01*
G02X393427Y93726I-166J-13843*
G01*
G75*
D01*
G02X392957Y93726I-235J-13842*
G01*
G75*
D01*
G02X392957Y121412I166J13843*
G01*
G75*
D01*
G02X392957Y149098I166J13843*
G01*
G75*
D01*
G02X389359Y176245I228J13842*
G01*
X389359Y187445D01*
G75*
D01*
G02X390481Y190163I3833J8*
G01*
X421469Y221151D01*
G75*
D01*
G02X424185Y222273I2710J-2711*
G01*
X499059Y222273D01*
G74*
D01*
G02X504167Y227381I8940J3832*
G01*
X504167Y285699D01*
G75*
D01*
G02X511611Y303673I3722J8987*
G01*
X537011Y209407D02*
G75*
D01*
G02X542433Y214829I-3611J9033*
G01*
X588468Y168793D01*
X620635Y168793D01*
G75*
D01*
G02X620635Y161127I9285J-3833*
G01*
X586880Y161127D01*
G75*
D01*
G02X586710Y161130I-17J3833*
G01*
G74*
D01*
G02X584169Y162249I169J3829*
G01*
X537011Y209407D01*
X1201916Y155183D02*
G75*
D01*
G02X1201916Y155183I-3536J-2783*
G01*
X1207540Y156523D02*
G75*
D01*
G02X1207540Y148277I-9160J-4123*
G01*
X1203417Y152400D01*
X1206200Y155183D01*
X1206200Y155183D01*
X1207540Y156523D01*
X1237790Y155183D02*
G75*
D01*
G02X1237790Y155183I-8430J-5463*
G01*
X1189220Y156523D02*
X1190560Y155183D01*
X1190560Y155183D01*
X1193343Y152400D01*
X1189220Y148277D01*
G75*
D01*
G02X1189220Y156523I9160J4123*
G01*
X1086949Y172549D02*
G75*
D01*
G02X1085827Y175271I2711J2710*
G01*
X1085827Y335569D01*
G75*
D01*
G02X1093493Y335569I3833J9871*
G01*
X1093493Y176848D01*
X1115159Y155183D01*
X1115159Y155183D01*
X1175068Y95273D01*
X1204835Y95273D01*
G75*
D01*
G02X1204835Y87607I9285J-3833*
G01*
X1173480Y87607D01*
G75*
D01*
G02X1173375Y87608I-16J3833*
G01*
G74*
D01*
G02X1170769Y88729I104J3832*
G01*
X1104316Y155183D01*
X1104316Y155183D01*
X1086949Y172549D01*
X744526Y155205D02*
G75*
D01*
G02X744526Y147495I-9276J-3855*
G01*
X754543Y137478D01*
G74*
D01*
G02X755673Y134760I2703J2718*
G01*
X755673Y-25453D01*
G74*
D01*
G02X762041Y-32915I1187J7461*
G01*
X762041Y-38205D01*
G75*
D01*
G02X754485Y-45761I-7556J0*
G01*
X749195Y-45761D01*
G75*
D01*
G02X741639Y-38205I0J7556*
G01*
X741639Y-32915D01*
G74*
D01*
G02X748007Y-25453I7556J0*
G01*
X748007Y133172D01*
X739105Y142074D01*
G75*
D01*
G02X739105Y160626I-3855J9276*
G01*
X755627Y177148D01*
X755627Y335569D01*
G75*
D01*
G02X763293Y335569I3833J9871*
G01*
X763293Y175560D01*
G75*
D01*
G02X762165Y172844I-3833J0*
G01*
X744526Y155205D01*
X704873Y161685D02*
G75*
D01*
G02X697185Y143124I-3844J-9281*
G01*
X679473Y125412D01*
X679473Y-25689D01*
G75*
D01*
G02X671807Y-25689I-3833J-9871*
G01*
X671807Y126992D01*
G75*
D01*
G02X672929Y129711I3833J9*
G01*
X691764Y148545D01*
G75*
D01*
G02X697207Y161685I9276J3855*
G01*
X697207Y312413D01*
G75*
D01*
G02X698329Y315131I3833J8*
G01*
X724370Y341171D01*
G75*
D01*
G02X729791Y335750I9689J4268*
G01*
X704873Y310832D01*
X704873Y161685D01*
X1273128Y395183D02*
G75*
D01*
G02X1273128Y395183I-10748J1057*
G01*
X1427521Y398675D02*
G75*
D01*
G02X1419965Y391119I-7556J0*
G01*
X1414675Y391119D01*
G75*
D01*
G02X1407119Y398675I0J7556*
G01*
X1407119Y403965D01*
G75*
D01*
G02X1414675Y411521I7556J0*
G01*
X1419965Y411521D01*
G74*
D01*
G02X1427521Y403965I0J7556*
G01*
X1427521Y398675D01*
X1244463Y349180D02*
G75*
D01*
G02X1244463Y349180I-2403J-3740*
G01*
X1004463Y351024D02*
G75*
D01*
G02X1004463Y351024I8997J-5584*
G01*
X764463Y539307D02*
G75*
D01*
G02X764463Y539307I-5003J9333*
G01*
X537746Y391664D02*
G75*
D01*
G02X529054Y391664I-4346J9655*
G01*
X533400Y396010D01*
X537746Y391664D01*
X588546Y391664D02*
G75*
D01*
G02X579854Y391664I-4346J9655*
G01*
X584200Y396010D01*
X588546Y391664D01*
X297489Y652883D02*
G75*
D01*
G02X297489Y652883I15034J0*
G01*
X1025392Y682238D02*
G74*
D01*
G02X1019562Y676408I9391J3561*
G01*
X1019562Y682238D01*
X1025392Y682238D01*
X1012438Y676408D02*
G74*
D01*
G02X1006608Y682238I3561J9391*
G01*
X1012438Y682238D01*
X1012438Y676408D01*
X1019562Y695192D02*
G74*
D01*
G02X1025392Y689362I3561J9391*
G01*
X1019562Y689362D01*
X1019562Y695192D01*
X1011500Y685800D02*
G75*
D01*
G02X1011500Y685800I4500J0*
G01*
X1006608Y689362D02*
G74*
D01*
G02X1012438Y695192I9391J3561*
G01*
X1012438Y689362D01*
X1006608Y689362D01*
X574748Y674278D02*
G75*
D01*
G02X583338Y665688I9951J1361*
G01*
X566245Y648595D01*
G74*
D01*
G02X561943Y646809I4302J4288*
G01*
X554876Y646809D01*
G75*
D01*
G02X554876Y658957I-13752J6074*
G01*
X559427Y658957D01*
X574748Y674278D01*
X630035Y675640D02*
G75*
D01*
G02X630035Y675640I10045J0*
G01*
X680835Y670560D02*
G75*
D01*
G02X680835Y670560I10045J0*
G01*
X696353Y698310D02*
G75*
D01*
G02X688107Y698310I-4123J9160*
G01*
X692230Y702432D01*
X696353Y698310D01*
X299926Y553720D02*
G75*
D01*
G02X299926Y553720I15034J0*
G01*
X506543Y40840D02*
G75*
D01*
G02X498297Y40840I-4123J9160*
G01*
X502420Y44963D01*
X506543Y40840D01*
X498297Y59160D02*
G75*
D01*
G02X506543Y59160I4123J-9160*
G01*
X502420Y55037D01*
X498297Y59160D01*
X497920Y50000D02*
G75*
D01*
G02X497920Y50000I4500J0*
G01*
X493260Y54123D02*
X497383Y50000D01*
X493260Y45877D01*
G75*
D01*
G02X493260Y54123I9160J4123*
G01*
X511580Y54123D02*
G75*
D01*
G02X511580Y45877I-9160J-4123*
G01*
X507457Y50000D01*
X511580Y54123D01*
X1301937Y690680D02*
G75*
D01*
G02X1310183Y690680I4123J-9160*
G01*
X1306060Y686557D01*
X1301937Y690680D01*
X1296900Y685643D02*
X1301023Y681520D01*
X1296900Y677397D01*
G75*
D01*
G02X1296900Y685643I9160J4123*
G01*
X1315220Y685643D02*
G75*
D01*
G02X1315220Y677397I-9160J-4123*
G01*
X1311097Y681520D01*
X1315220Y685643D01*
X1301560Y681520D02*
G75*
D01*
G02X1301560Y681520I4500J0*
G01*
X1310183Y672360D02*
G75*
D01*
G02X1301937Y672360I-4123J9160*
G01*
X1306060Y676483D01*
X1310183Y672360D01*
X1336155Y673240D02*
G75*
D01*
G02X1336155Y673240I10045J0*
G01*
X772617Y643360D02*
G75*
D01*
G02X780863Y643360I4123J-9160*
G01*
X776740Y639237D01*
X772617Y643360D01*
X808177Y643360D02*
G75*
D01*
G02X816423Y643360I4123J-9160*
G01*
X812300Y639237D01*
X808177Y643360D01*
X843737Y643360D02*
G75*
D01*
G02X851983Y643360I4123J-9160*
G01*
X847860Y639237D01*
X843737Y643360D01*
X830835Y670560D02*
G75*
D01*
G02X830835Y670560I10045J0*
G01*
X1161520Y659943D02*
G75*
D01*
G02X1161520Y651697I-9160J-4123*
G01*
X1157397Y655820D01*
X1161520Y659943D01*
X1147860Y655820D02*
G75*
D01*
G02X1147860Y655820I4500J0*
G01*
X1143200Y659943D02*
X1147323Y655820D01*
X1143200Y651697D01*
G75*
D01*
G02X1143200Y659943I9160J4123*
G01*
X1156483Y646660D02*
G75*
D01*
G02X1148237Y646660I-4123J9160*
G01*
X1152360Y650783D01*
X1156483Y646660D01*
X1148237Y664980D02*
G75*
D01*
G02X1156483Y664980I4123J-9160*
G01*
X1152360Y660857D01*
X1148237Y664980D01*
X480250Y462280D02*
G75*
D01*
G02X480250Y462280I12510J0*
G01*
X930156Y-29833D02*
G75*
D01*
G02X930156Y-29833I10045J0*
G01*
X959691Y-35560D02*
G75*
D01*
G02X959691Y-35560I10589J0*
G01*
X294795Y-58420D02*
G75*
D01*
G02X294795Y-58420I15085J0*
G01*
X387853Y-3556D02*
G75*
D01*
G02X387853Y-3556I19563J0*
G01*
X421405Y79883D02*
G75*
D01*
G02X421875Y79883I235J13842*
G01*
G75*
D01*
G02X421405Y79883I-235J-13842*
G01*
X416640Y121412D02*
G75*
D01*
G02X416640Y121412I5000J0*
G01*
X416730Y108467D02*
G74*
D01*
G02X408695Y116502I4909J12944*
G01*
X416730Y116502D01*
X416730Y108467D01*
X434585Y116502D02*
G74*
D01*
G02X426550Y108467I12944J4909*
G01*
X426550Y116502D01*
X434585Y116502D01*
X408695Y126322D02*
G74*
D01*
G02X416730Y134357I12944J4909*
G01*
X416730Y126322D01*
X408695Y126322D01*
X426550Y134357D02*
G74*
D01*
G02X434585Y126322I4909J12944*
G01*
X426550Y126322D01*
X426550Y134357D01*
X1303125Y81321D02*
G74*
D01*
G02X1310681Y73765I0J7556*
G01*
X1310681Y68475D01*
G75*
D01*
G02X1303125Y60919I-7556J0*
G01*
X1297835Y60919D01*
G75*
D01*
G02X1290279Y68475I0J7556*
G01*
X1290279Y73765D01*
G75*
D01*
G02X1297835Y81321I7556J0*
G01*
X1303125Y81321D01*
X1442875Y-60960D02*
G75*
D01*
G02X1442875Y-60960I15085J0*
G01*
X1289891Y45720D02*
G75*
D01*
G02X1289891Y45720I10589J0*
G01*
X387853Y246380D02*
G75*
D01*
G02X387853Y246380I19563J0*
G01*
X331665Y321090D02*
G75*
D01*
G02X331665Y321090I10045J0*
G01*
X481665Y321090D02*
G75*
D01*
G02X481665Y321090I10045J0*
G01*
X1204960Y-54437D02*
X1209083Y-58560D01*
X1204960Y-62683D01*
G75*
D01*
G02X1204960Y-54437I9160J4123*
G01*
X1223280Y-54437D02*
G75*
D01*
G02X1223280Y-62683I-9160J-4123*
G01*
X1219157Y-58560D01*
X1223280Y-54437D01*
X1209620Y-58560D02*
G75*
D01*
G02X1209620Y-58560I4500J0*
G01*
X1218243Y-67720D02*
G75*
D01*
G02X1209997Y-67720I-4123J9160*
G01*
X1214120Y-63597D01*
X1218243Y-67720D01*
X1010491Y-35560D02*
G75*
D01*
G02X1010491Y-35560I10589J0*
G01*
X1035891Y-35560D02*
G75*
D01*
G02X1035891Y-35560I10589J0*
G01*
X1061741Y-39177D02*
X1068263Y-39177D01*
X1068263Y-45699D01*
G74*
D01*
G02X1061741Y-39177I971J7493*
G01*
X1075498Y-45699D02*
X1075498Y-39177D01*
X1082019Y-39177D01*
G74*
D01*
G02X1075498Y-45699I7493J971*
G01*
X1066905Y-35560D02*
G75*
D01*
G02X1066905Y-35560I4975J0*
G01*
X1093200Y-34117D02*
X1097323Y-38240D01*
X1093200Y-42363D01*
G75*
D01*
G02X1093200Y-34117I9160J4123*
G01*
X1106483Y-47400D02*
G75*
D01*
G02X1098237Y-47400I-4123J9160*
G01*
X1102360Y-43277D01*
X1106483Y-47400D01*
X1097860Y-38240D02*
G75*
D01*
G02X1097860Y-38240I4500J0*
G01*
X1111520Y-34117D02*
G75*
D01*
G02X1111520Y-42363I-9160J-4123*
G01*
X1107397Y-38240D01*
X1111520Y-34117D01*
X1111636Y107905D02*
X1145705Y73836D01*
G74*
D01*
G02X1146833Y71120I2705J2716*
G01*
X1146833Y-25453D01*
G74*
D01*
G02X1153201Y-32915I1187J7461*
G01*
X1153201Y-38205D01*
G75*
D01*
G02X1145645Y-45761I-7556J0*
G01*
X1140355Y-45761D01*
G75*
D01*
G02X1132799Y-38205I0J7556*
G01*
X1132799Y-32915D01*
G74*
D01*
G02X1139167Y-25453I7556J0*
G01*
X1139167Y69532D01*
X1106215Y102484D01*
G75*
D01*
G02X1111636Y107905I-3855J9276*
G01*
X1209997Y-49400D02*
G75*
D01*
G02X1218243Y-49400I4123J-9160*
G01*
X1214120Y-53523D01*
X1209997Y-49400D01*
X1082019Y-31942D02*
X1075498Y-31942D01*
X1075498Y-25421D01*
G74*
D01*
G02X1082019Y-31942I972J7493*
G01*
X1068263Y-25421D02*
X1068263Y-31942D01*
X1061741Y-31942D01*
G74*
D01*
G02X1068263Y-25421I7493J972*
G01*
X1098237Y-29080D02*
G75*
D01*
G02X1106483Y-29080I4123J-9160*
G01*
X1102360Y-33203D01*
X1098237Y-29080D01*
X1202503Y143240D02*
G75*
D01*
G02X1194257Y143240I-4123J9160*
G01*
X1198380Y147363D01*
X1202503Y143240D01*
X627635Y-35560D02*
G75*
D01*
G02X627635Y-35560I10045J0*
G01*
X696917Y11560D02*
G75*
D01*
G02X705163Y11560I4123J-9160*
G01*
X701040Y7437D01*
X696917Y11560D01*
X705163Y-6760D02*
G75*
D01*
G02X696917Y-6760I-4123J9160*
G01*
X701040Y-2637D01*
X705163Y-6760D01*
X696540Y2400D02*
G75*
D01*
G02X696540Y2400I4500J0*
G01*
X691880Y6523D02*
X696003Y2400D01*
X691880Y-1723D01*
G75*
D01*
G02X691880Y6523I9160J4123*
G01*
X710200Y6523D02*
G75*
D01*
G02X710200Y-1723I-9160J-4123*
G01*
X706077Y2400D01*
X710200Y6523D01*
X726090Y5473D02*
X730213Y1350D01*
X726090Y-2773D01*
G75*
D01*
G02X726090Y5473I9160J4123*
G01*
X731127Y10510D02*
G75*
D01*
G02X739373Y10510I4123J-9160*
G01*
X735250Y6387D01*
X731127Y10510D01*
X739373Y-7810D02*
G75*
D01*
G02X731127Y-7810I-4123J9160*
G01*
X735250Y-3687D01*
X739373Y-7810D01*
X730750Y1350D02*
G75*
D01*
G02X730750Y1350I4500J0*
G01*
X744410Y5473D02*
G75*
D01*
G02X744410Y-2773I-9160J-4123*
G01*
X740287Y1350D01*
X744410Y5473D01*
X1366135Y203200D02*
G75*
D01*
G02X1366135Y203200I10045J0*
G01*
X1404515Y192999D02*
G75*
D01*
G02X1396959Y200555I0J7556*
G01*
X1396959Y205845D01*
G75*
D01*
G02X1404515Y213401I7556J0*
G01*
X1409805Y213401D01*
G74*
D01*
G02X1417361Y205845I0J7556*
G01*
X1417361Y200555D01*
G75*
D01*
G02X1409805Y192999I-7556J0*
G01*
X1404515Y192999D01*
X1403405Y218699D02*
G74*
D01*
G02X1397259Y224845I3755J9901*
G01*
X1403405Y224845D01*
X1403405Y218699D01*
X1417061Y224845D02*
G74*
D01*
G02X1410915Y218699I9901J3755*
G01*
X1410915Y224845D01*
X1417061Y224845D01*
X1397259Y232355D02*
G74*
D01*
G02X1403405Y238501I9901J3755*
G01*
X1403405Y232355D01*
X1397259Y232355D01*
X1410915Y238501D02*
G74*
D01*
G02X1417061Y232355I3755J9901*
G01*
X1410915Y232355D01*
X1410915Y238501D01*
X1402715Y228600D02*
G75*
D01*
G02X1402715Y228600I4445J0*
G01*
X1372057Y262360D02*
G75*
D01*
G02X1380303Y262360I4123J-9160*
G01*
X1376180Y258237D01*
X1372057Y262360D01*
X1380303Y244040D02*
G75*
D01*
G02X1372057Y244040I-4123J9160*
G01*
X1376180Y248163D01*
X1380303Y244040D01*
X1371680Y253200D02*
G75*
D01*
G02X1371680Y253200I4500J0*
G01*
X1367020Y257323D02*
X1371143Y253200D01*
X1367020Y249077D01*
G75*
D01*
G02X1367020Y257323I9160J4123*
G01*
X1396571Y254000D02*
G75*
D01*
G02X1396571Y254000I10589J0*
G01*
X1385340Y257323D02*
G75*
D01*
G02X1385340Y249077I-9160J-4123*
G01*
X1381217Y253200D01*
X1385340Y257323D01*
X1251961Y341685D02*
G74*
D01*
G02X1245815Y335539I9901J3755*
G01*
X1245815Y341685D01*
X1251961Y341685D01*
X1256871Y345440D02*
G75*
D01*
G02X1256871Y345440I10589J0*
G01*
X1245815Y355341D02*
G74*
D01*
G02X1251961Y349195I3755J9901*
G01*
X1245815Y349195D01*
X1245815Y355341D01*
X1251580Y421640D02*
G75*
D01*
G02X1251580Y421640I10800J0*
G01*
X1406731Y426720D02*
G75*
D01*
G02X1406731Y426720I10589J0*
G01*
X1251580Y447040D02*
G75*
D01*
G02X1251580Y447040I10800J0*
G01*
X1406731Y452120D02*
G75*
D01*
G02X1406731Y452120I10589J0*
G01*
X1251580Y472440D02*
G75*
D01*
G02X1251580Y472440I10800J0*
G01*
X1406731Y477520D02*
G75*
D01*
G02X1406731Y477520I10589J0*
G01*
X1251580Y497840D02*
G75*
D01*
G02X1251580Y497840I10800J0*
G01*
X1406731Y502920D02*
G75*
D01*
G02X1406731Y502920I10589J0*
G01*
X1336155Y523240D02*
G75*
D01*
G02X1336155Y523240I10045J0*
G01*
X1263705Y538739D02*
G74*
D01*
G02X1257559Y544885I3755J9901*
G01*
X1263705Y544885D01*
X1263705Y538739D01*
X1277361Y544885D02*
G74*
D01*
G02X1271215Y538739I9901J3755*
G01*
X1271215Y544885D01*
X1277361Y544885D01*
X1257559Y552395D02*
G74*
D01*
G02X1263705Y558541I9901J3755*
G01*
X1263705Y552395D01*
X1257559Y552395D01*
X1271215Y558541D02*
G74*
D01*
G02X1277361Y552395I3755J9901*
G01*
X1271215Y552395D01*
X1271215Y558541D01*
X1263015Y548640D02*
G75*
D01*
G02X1263015Y548640I4445J0*
G01*
X774271Y345440D02*
G75*
D01*
G02X774271Y345440I10589J0*
G01*
X799671Y345440D02*
G75*
D01*
G02X799671Y345440I10589J0*
G01*
X825071Y345440D02*
G75*
D01*
G02X825071Y345440I10589J0*
G01*
X850471Y345440D02*
G75*
D01*
G02X850471Y345440I10589J0*
G01*
X875871Y345440D02*
G75*
D01*
G02X875871Y345440I10589J0*
G01*
X901271Y345440D02*
G75*
D01*
G02X901271Y345440I10589J0*
G01*
X926671Y345440D02*
G75*
D01*
G02X926671Y345440I10589J0*
G01*
X952071Y345440D02*
G75*
D01*
G02X952071Y345440I10589J0*
G01*
X977471Y345440D02*
G75*
D01*
G02X977471Y345440I10589J0*
G01*
X1232159Y349195D02*
G74*
D01*
G02X1238305Y355341I9901J3755*
G01*
X1238305Y349195D01*
X1232159Y349195D01*
X1194257Y161560D02*
G75*
D01*
G02X1202503Y161560I4123J-9160*
G01*
X1198380Y157437D01*
X1194257Y161560D01*
X1119329Y335750D02*
G75*
D01*
G02X1124750Y341171I-4268J9689*
G01*
X1155865Y310056D01*
G74*
D01*
G02X1156993Y307340I2705J2716*
G01*
X1156993Y250508D01*
X1195025Y212476D01*
G75*
D01*
G02X1189604Y207055I3855J-9276*
G01*
X1150449Y246209D01*
G75*
D01*
G02X1149327Y248931I2711J2710*
G01*
X1149327Y305752D01*
X1119329Y335750D01*
X1184255Y242840D02*
G75*
D01*
G02X1184255Y242840I10045J0*
G01*
X1190677Y302800D02*
G75*
D01*
G02X1198923Y302800I4123J-9160*
G01*
X1194800Y298677D01*
X1190677Y302800D01*
X1203960Y297763D02*
G75*
D01*
G02X1203960Y289517I-9160J-4123*
G01*
X1199837Y293640D01*
X1203960Y297763D01*
X1185640Y297763D02*
X1189763Y293640D01*
X1185640Y289517D01*
G75*
D01*
G02X1185640Y297763I9160J4123*
G01*
X1198923Y284480D02*
G75*
D01*
G02X1190677Y284480I-4123J9160*
G01*
X1194800Y288603D01*
X1198923Y284480D01*
X1190300Y293640D02*
G75*
D01*
G02X1190300Y293640I4500J0*
G01*
X1219315Y299720D02*
G75*
D01*
G02X1219315Y299720I10045J0*
G01*
X1028271Y345440D02*
G75*
D01*
G02X1028271Y345440I10589J0*
G01*
X1053671Y345440D02*
G75*
D01*
G02X1053671Y345440I10589J0*
G01*
X1129871Y345440D02*
G75*
D01*
G02X1129871Y345440I10589J0*
G01*
X1155271Y345440D02*
G75*
D01*
G02X1155271Y345440I10589J0*
G01*
X1180671Y345440D02*
G75*
D01*
G02X1180671Y345440I10589J0*
G01*
X1206071Y345440D02*
G75*
D01*
G02X1206071Y345440I10589J0*
G01*
X1238305Y335539D02*
G74*
D01*
G02X1232159Y341685I3755J9901*
G01*
X1238305Y341685D01*
X1238305Y335539D01*
X774271Y548640D02*
G75*
D01*
G02X774271Y548640I10589J0*
G01*
X799671Y548640D02*
G75*
D01*
G02X799671Y548640I10589J0*
G01*
X825071Y548640D02*
G75*
D01*
G02X825071Y548640I10589J0*
G01*
X850471Y548640D02*
G75*
D01*
G02X850471Y548640I10589J0*
G01*
X875871Y548640D02*
G75*
D01*
G02X875871Y548640I10589J0*
G01*
X901271Y548640D02*
G75*
D01*
G02X901271Y548640I10589J0*
G01*
X926671Y548640D02*
G75*
D01*
G02X926671Y548640I10589J0*
G01*
X952071Y548640D02*
G75*
D01*
G02X952071Y548640I10589J0*
G01*
X977471Y548640D02*
G75*
D01*
G02X977471Y548640I10589J0*
G01*
X766695Y584200D02*
G75*
D01*
G02X766695Y584200I10045J0*
G01*
X802255Y584200D02*
G75*
D01*
G02X802255Y584200I10045J0*
G01*
X837815Y584200D02*
G75*
D01*
G02X837815Y584200I10045J0*
G01*
X950728Y597922D02*
G74*
D01*
G02X956558Y603752I9391J3561*
G01*
X956558Y597922D01*
X950728Y597922D01*
X955620Y594360D02*
G75*
D01*
G02X955620Y594360I4500J0*
G01*
X956558Y584968D02*
G74*
D01*
G02X950728Y590798I3561J9391*
G01*
X956558Y590798D01*
X956558Y584968D01*
X963682Y603752D02*
G74*
D01*
G02X969512Y597922I3561J9391*
G01*
X963682Y597922D01*
X963682Y603752D01*
X969512Y590798D02*
G74*
D01*
G02X963682Y584968I9391J3561*
G01*
X963682Y590798D01*
X969512Y590798D01*
X780863Y625040D02*
G75*
D01*
G02X772617Y625040I-4123J9160*
G01*
X776740Y629163D01*
X780863Y625040D01*
X816423Y625040D02*
G75*
D01*
G02X808177Y625040I-4123J9160*
G01*
X812300Y629163D01*
X816423Y625040D01*
X851983Y625040D02*
G75*
D01*
G02X843737Y625040I-4123J9160*
G01*
X847860Y629163D01*
X851983Y625040D01*
X587650Y227536D02*
G74*
D01*
G02X593296Y221890I3450J9096*
G01*
X587650Y221890D01*
X587650Y227536D01*
X575104Y221890D02*
G74*
D01*
G02X580750Y227536I9096J3450*
G01*
X580750Y221890D01*
X575104Y221890D01*
X593296Y214990D02*
G74*
D01*
G02X587650Y209344I9096J3450*
G01*
X587650Y214990D01*
X593296Y214990D01*
X579755Y218440D02*
G75*
D01*
G02X579755Y218440I4445J0*
G01*
X580750Y209344D02*
G74*
D01*
G02X575104Y214990I3450J9096*
G01*
X580750Y214990D01*
X580750Y209344D01*
X549072Y218440D02*
G75*
D01*
G02X549072Y218440I9728J0*
G01*
X549072Y294640D02*
G75*
D01*
G02X549072Y294640I9728J0*
G01*
X575104Y298090D02*
G74*
D01*
G02X580750Y303736I9096J3450*
G01*
X580750Y298090D01*
X575104Y298090D01*
X580750Y285544D02*
G74*
D01*
G02X575104Y291190I3450J9096*
G01*
X580750Y291190D01*
X580750Y285544D01*
X579755Y294640D02*
G75*
D01*
G02X579755Y294640I4445J0*
G01*
X587650Y303736D02*
G74*
D01*
G02X593296Y298090I3450J9096*
G01*
X587650Y298090D01*
X587650Y303736D01*
X593296Y291190D02*
G74*
D01*
G02X587650Y285544I9096J3450*
G01*
X587650Y291190D01*
X593296Y291190D01*
X619875Y314960D02*
G75*
D01*
G02X619875Y314960I10045J0*
G01*
X573611Y350520D02*
G75*
D01*
G02X573611Y350520I10589J0*
G01*
X621871Y345440D02*
G75*
D01*
G02X621871Y345440I10589J0*
G01*
X647271Y345440D02*
G75*
D01*
G02X647271Y345440I10589J0*
G01*
X672671Y345440D02*
G75*
D01*
G02X672671Y345440I10589J0*
G01*
X698071Y345440D02*
G75*
D01*
G02X698071Y345440I10589J0*
G01*
X1028271Y548640D02*
G75*
D01*
G02X1028271Y548640I10589J0*
G01*
X1053671Y548640D02*
G75*
D01*
G02X1053671Y548640I10589J0*
G01*
X1079071Y548640D02*
G75*
D01*
G02X1079071Y548640I10589J0*
G01*
X1104471Y548640D02*
G75*
D01*
G02X1104471Y548640I10589J0*
G01*
X1129871Y548640D02*
G75*
D01*
G02X1129871Y548640I10589J0*
G01*
X1201161Y544885D02*
G74*
D01*
G02X1195015Y538739I9901J3755*
G01*
X1195015Y544885D01*
X1201161Y544885D01*
X1187505Y538739D02*
G74*
D01*
G02X1181359Y544885I3755J9901*
G01*
X1187505Y544885D01*
X1187505Y538739D01*
X1206071Y548640D02*
G75*
D01*
G02X1206071Y548640I10589J0*
G01*
X1195015Y558541D02*
G74*
D01*
G02X1201161Y552395I3755J9901*
G01*
X1195015Y552395D01*
X1195015Y558541D01*
X1181359Y552395D02*
G74*
D01*
G02X1187505Y558541I9901J3755*
G01*
X1187505Y552395D01*
X1181359Y552395D01*
X1186815Y548640D02*
G75*
D01*
G02X1186815Y548640I4445J0*
G01*
X1008500Y574143D02*
G75*
D01*
G02X1005943Y576700I0J2557*
G01*
X1005943Y591700D01*
G75*
D01*
G02X1008500Y594257I2557J0*
G01*
X1023500Y594257D01*
G74*
D01*
G02X1026057Y591700I0J2557*
G01*
X1026057Y576700D01*
G75*
D01*
G02X1023500Y574143I-2557J0*
G01*
X1008500Y574143D01*
X1051675Y584200D02*
G75*
D01*
G02X1051675Y584200I10045J0*
G01*
X543056Y405666D02*
G75*
D01*
G02X543056Y396974I-9655J-4346*
G01*
X538710Y401320D01*
X543056Y405666D01*
X528955Y401320D02*
G75*
D01*
G02X528955Y401320I4445J0*
G01*
X574544Y405666D02*
X578890Y401320D01*
X574544Y396974D01*
G75*
D01*
G02X574544Y405666I9655J4346*
G01*
X579755Y401320D02*
G75*
D01*
G02X579755Y401320I4445J0*
G01*
X593856Y405666D02*
G75*
D01*
G02X593856Y396974I-9655J-4346*
G01*
X589510Y401320D01*
X593856Y405666D01*
X529054Y410976D02*
G75*
D01*
G02X537746Y410976I4346J-9655*
G01*
X533400Y406630D01*
X529054Y410976D01*
X579854Y410976D02*
G75*
D01*
G02X588546Y410976I4346J-9655*
G01*
X584200Y406630D01*
X579854Y410976D01*
X556082Y452315D02*
G75*
D01*
G02X553525Y449758I-2557J0*
G01*
X533595Y449758D01*
G75*
D01*
G02X531038Y452315I0J2557*
G01*
X531038Y472245D01*
G75*
D01*
G02X533595Y474802I2557J0*
G01*
X553525Y474802D01*
G74*
D01*
G02X556082Y472245I0J2557*
G01*
X556082Y452315D01*
X578735Y518160D02*
G75*
D01*
G02X578735Y518160I10045J0*
G01*
X621871Y548640D02*
G75*
D01*
G02X621871Y548640I10589J0*
G01*
X654105Y538739D02*
G74*
D01*
G02X647959Y544885I3755J9901*
G01*
X654105Y544885D01*
X654105Y538739D01*
X667761Y544885D02*
G74*
D01*
G02X661615Y538739I9901J3755*
G01*
X661615Y544885D01*
X667761Y544885D01*
X672671Y548640D02*
G75*
D01*
G02X672671Y548640I10589J0*
G01*
X698071Y548640D02*
G75*
D01*
G02X698071Y548640I10589J0*
G01*
X723471Y548640D02*
G75*
D01*
G02X723471Y548640I10589J0*
G01*
X592903Y559000D02*
G75*
D01*
G02X584657Y559000I-4123J9160*
G01*
X588780Y563123D01*
X592903Y559000D01*
X653415Y548640D02*
G75*
D01*
G02X653415Y548640I4445J0*
G01*
X647959Y552395D02*
G74*
D01*
G02X654105Y558541I9901J3755*
G01*
X654105Y552395D01*
X647959Y552395D01*
X661615Y558541D02*
G74*
D01*
G02X667761Y552395I3755J9901*
G01*
X661615Y552395D01*
X661615Y558541D01*
X579620Y572283D02*
X583743Y568160D01*
X579620Y564037D01*
G75*
D01*
G02X579620Y572283I9160J4123*
G01*
X584657Y577320D02*
G75*
D01*
G02X592903Y577320I4123J-9160*
G01*
X588780Y573197D01*
X584657Y577320D01*
X597940Y572283D02*
G75*
D01*
G02X597940Y564037I-9160J-4123*
G01*
X593817Y568160D01*
X597940Y572283D01*
X584280Y568160D02*
G75*
D01*
G02X584280Y568160I4500J0*
G01*
X670075Y608700D02*
G75*
D01*
G02X670075Y608700I10045J0*
G01*
X734243Y599540D02*
G75*
D01*
G02X725997Y599540I-4123J9160*
G01*
X730120Y603663D01*
X734243Y599540D01*
X588323Y615680D02*
G75*
D01*
G02X580077Y615680I-4123J9160*
G01*
X584200Y619803D01*
X588323Y615680D01*
X739280Y612823D02*
G75*
D01*
G02X739280Y604577I-9160J-4123*
G01*
X735157Y608700D01*
X739280Y612823D01*
X720960Y612823D02*
X725083Y608700D01*
X720960Y604577D01*
G75*
D01*
G02X720960Y612823I9160J4123*
G01*
X725997Y617860D02*
G75*
D01*
G02X734243Y617860I4123J-9160*
G01*
X730120Y613737D01*
X725997Y617860D01*
X725620Y608700D02*
G75*
D01*
G02X725620Y608700I4500J0*
G01*
X579700Y624840D02*
G75*
D01*
G02X579700Y624840I4500J0*
G01*
X575040Y628963D02*
X579163Y624840D01*
X575040Y620717D01*
G75*
D01*
G02X575040Y628963I9160J4123*
G01*
X580077Y634000D02*
G75*
D01*
G02X588323Y634000I4123J-9160*
G01*
X584200Y629877D01*
X580077Y634000D01*
X593360Y628963D02*
G75*
D01*
G02X593360Y620717I-9160J-4123*
G01*
X589237Y624840D01*
X593360Y628963D01*
X1046480Y666727D02*
X994728Y666727D01*
X963184Y635183D01*
X925555Y597554D01*
X925555Y587720D01*
G75*
D01*
G02X922998Y585163I-2557J0*
G01*
X907998Y585163D01*
G75*
D01*
G02X905441Y587720I0J2557*
G01*
X905441Y602720D01*
G75*
D01*
G02X907998Y605277I2557J0*
G01*
X922436Y605277D01*
X952341Y635183D01*
X952341Y635183D01*
X990429Y673271D01*
G75*
D01*
G02X993146Y674393I2710J-2711*
G01*
X1044892Y674393D01*
X1051663Y681164D01*
X1051663Y693300D01*
G75*
D01*
G02X1054220Y695857I2557J0*
G01*
X1069220Y695857D01*
G74*
D01*
G02X1071777Y693300I0J2557*
G01*
X1071777Y689633D01*
X1156652Y689633D01*
X1170599Y703580D01*
X973161Y703580D01*
X970177Y700596D01*
X970177Y688460D01*
G75*
D01*
G02X967620Y685903I-2557J0*
G01*
X952620Y685903D01*
G75*
D01*
G02X950063Y688460I0J2557*
G01*
X950063Y703460D01*
G74*
D01*
G02X950066Y703580I2557J4*
G01*
X922928Y703580D01*
G75*
D01*
G02X908068Y703580I-7430J-6760*
G01*
X851491Y703580D01*
G75*
D01*
G02X832969Y703580I-9261J3888*
G01*
X701491Y703580D01*
G74*
D01*
G02X701390Y703347I9265J3878*
G01*
X701157Y703580D01*
X694492Y703580D01*
G75*
D01*
G02X689968Y703580I-2262J3889*
G01*
X683303Y703580D01*
X683070Y703347D01*
G74*
D01*
G02X682969Y703580I9165J4111*
G01*
X615973Y703580D01*
X615973Y629920D01*
G75*
D01*
G02X614845Y627204I-3833J0*
G01*
X553034Y565393D01*
G75*
D01*
G02X545435Y568637I-9474J-11672*
G01*
X608307Y631508D01*
X608307Y703580D01*
X305770Y703580D01*
X347189Y662162D01*
G74*
D01*
G02X348974Y657860I4289J4301*
G01*
X348974Y421640D01*
G75*
D01*
G02X347680Y417892I-6074J0*
G01*
G74*
D01*
G02X337834Y408940I12400J3748*
G01*
G75*
D01*
G02X337834Y383540I-2553J-12700*
G01*
G75*
D01*
G02X332726Y383540I-2554J-12700*
G01*
G75*
D01*
G02X332726Y408940I2553J12700*
G01*
G75*
D01*
G02X336826Y434502I2543J12702*
G01*
X336826Y655344D01*
X292100Y700070D01*
X292100Y-78740D01*
X1480820Y-78740D01*
X1480820Y703580D01*
X1259881Y703580D01*
X1259881Y698395D01*
G75*
D01*
G02X1252325Y690839I-7556J0*
G01*
X1247035Y690839D01*
G75*
D01*
G02X1239479Y698395I0J7556*
G01*
X1239479Y703580D01*
X1181441Y703580D01*
X1160956Y683095D01*
G74*
D01*
G02X1158240Y681967I2716J2705*
G01*
X1071777Y681967D01*
X1071777Y678300D01*
G75*
D01*
G02X1069220Y675743I-2557J0*
G01*
X1057084Y675743D01*
X1049196Y667855D01*
G74*
D01*
G02X1046480Y666727I2716J2705*
G01*
X1273482Y608025D02*
G74*
D01*
G02X1268425Y613082I4138J9195*
G01*
X1264943Y609600D01*
G74*
D01*
G02X1270000Y604543I23J5080*
G01*
X1273482Y608025D01*
G54D12*
X1168400Y-35560D02*
X1168400Y-48260D01*
X1160780Y-55880D01*
X741680Y-55880D02*
X1160780Y-55880D01*
X741680Y-55880D02*
X741680Y-50800D01*
X726440Y-35560D01*
X701040Y-35560D02*
X675640Y-60960D01*
X513080Y-60960D01*
X487680Y-35560D01*
X675640Y-35560D02*
X675640Y127000D01*
X701040Y152400D01*
X751840Y-35560D02*
X751840Y134760D01*
X735250Y151350D01*
X1102360Y111760D02*
X1143000Y71120D01*
X1143000Y-35560D01*
X960120Y695960D02*
X990900Y726740D01*
X1110120Y726740D01*
X915498Y595220D02*
X917800Y595220D01*
X993140Y670560D01*
X1046480Y670560D01*
X1061720Y685800D01*
X1158240Y685800D01*
X1203960Y731520D01*
X508000Y294640D02*
X533400Y320040D01*
X533400Y350520D01*
X508000Y294640D02*
X508000Y218440D01*
X629920Y164960D02*
X586880Y164960D01*
X533400Y218440D01*
X393192Y162941D02*
X393192Y187452D01*
X424180Y218440D01*
X508000Y218440D01*
X701040Y152400D02*
X701040Y312420D01*
X734060Y345440D01*
X759460Y345440D02*
X759460Y175560D01*
X735250Y151350D01*
X487680Y-35560D02*
X487680Y-14740D01*
X502420Y0D01*
X502420Y5580D01*
X469900Y38100D01*
X469900Y180340D01*
X508000Y218440D01*
X1198880Y203200D02*
X1153160Y248920D01*
X1153160Y307340D01*
X1115060Y345440D01*
X1214120Y91440D02*
X1173480Y91440D01*
X1089660Y175260D01*
X1089660Y345440D01*
X1165860Y548640D02*
X1165860Y599440D01*
X1109480Y655820D01*
X1102360Y655820D01*
X409307Y1041767D02*
X429260Y1061720D01*
X409307Y1038109D02*
X409307Y1041767D01*
X429260Y1061720D02*
X596860Y1061720D01*
X1281320Y935880D02*
X1281320Y821500D01*
X1294600Y808220D01*
X1244600Y808220D02*
X1244600Y924560D01*
X1148080Y1021080D01*
X594360Y1061720D02*
X616680Y1039400D01*
X616680Y1001260D01*
X612140Y940240D02*
X680420Y1008520D01*
X543560Y553720D02*
X543560Y561340D01*
X612140Y629920D01*
X612140Y940240D01*
G54D13*
X541123Y652883D02*
X561943Y652883D01*
X584700Y675640D01*
X317509Y828049D02*
X548631Y828049D01*
X317509Y828049D02*
X317509Y1038851D01*
X548631Y828049D02*
X548631Y843289D01*
X335289Y843289D01*
X335289Y861051D01*
X548631Y861051D01*
X548631Y876291D01*
X332749Y876291D01*
X332749Y891531D01*
X546091Y891531D01*
X546091Y914391D01*
X335289Y914391D01*
X335289Y929649D01*
X546091Y929649D01*
X546091Y944871D01*
X332749Y944871D01*
X332749Y962651D01*
X543551Y962651D01*
X543551Y975369D01*
X335271Y975369D01*
X335271Y990609D01*
X543551Y990609D01*
X543551Y1008371D01*
X368309Y1008371D01*
X363220Y1013460D01*
X363220Y1038860D01*
X339797Y1061720D02*
X363408Y1038109D01*
X294640Y1049020D02*
X307340Y1061720D01*
X294640Y706120D02*
X294640Y1049020D01*
X342900Y657860D02*
X294640Y706120D01*
X342900Y421640D02*
X342900Y657860D01*
X335280Y421640D02*
X342900Y421640D01*
G54D14*
X251476Y-91880D02*
X251476Y29107D01*
X251476Y-91880D02*
X375056Y-91880D01*
X1487274Y-91880D02*
X1363694Y-91880D01*
X1487274Y-91880D02*
X1487274Y29107D01*
X1487274Y1117994D02*
X1487274Y997007D01*
X1487274Y1117994D02*
X1363694Y1117994D01*
X251476Y1117994D02*
X375056Y1117994D01*
X251476Y1117994D02*
X251476Y997007D01*
X201476Y-91880D02*
X101476Y-91880D01*
X151476Y-141880D02*
X151476Y-41880D01*
X113976Y-91880D02*
G75*
D01*
G02X113976Y-91880I37500J0*
G01*
X1537274Y-91880D02*
X1637274Y-91880D01*
X1587274Y-141880D02*
X1587274Y-41880D01*
X1549774Y-91880D02*
G75*
D01*
G02X1549774Y-91880I37500J0*
G01*
X1574774Y-91880D02*
G75*
D01*
G02X1574774Y-91880I12500J0*
G01*
X201476Y1117994D02*
X101476Y1117994D01*
X151476Y1067994D02*
X151476Y1167994D01*
X113976Y1117994D02*
G75*
D01*
G02X113976Y1117994I37500J0*
G01*
X126476Y1117994D02*
G75*
D01*
G02X126476Y1117994I25000J0*
G01*
X138976Y1117994D02*
G75*
D01*
G02X138976Y1117994I12500J0*
G01*
G54D15*
X407416Y246380D03*
X407416Y-3556D03*
G54D16*
X421640Y66040D03*
X421640Y93726D03*
X421640Y121412D03*
X421640Y149098D03*
X421640Y176784D03*
X393192Y79883D03*
X393192Y107569D03*
X393192Y135255D03*
X393192Y162941D03*
G54D17*
X632460Y548640D03*
X657860Y548640D03*
X683260Y548640D03*
X708660Y548640D03*
X734060Y548640D03*
X759460Y548640D03*
X784860Y548640D03*
X810260Y548640D03*
X835660Y548640D03*
X861060Y548640D03*
X886460Y548640D03*
X911860Y548640D03*
X937260Y548640D03*
X962660Y548640D03*
X988060Y548640D03*
X1013460Y548640D03*
X1038860Y548640D03*
X1064260Y548640D03*
X1089660Y548640D03*
X1115060Y548640D03*
X1140460Y548640D03*
X1165860Y548640D03*
X1191260Y548640D03*
X1242060Y548640D03*
X632460Y345440D03*
X657860Y345440D03*
X683260Y345440D03*
X708660Y345440D03*
X734060Y345440D03*
X759460Y345440D03*
X784860Y345440D03*
X810260Y345440D03*
X835660Y345440D03*
X861060Y345440D03*
X886460Y345440D03*
X911860Y345440D03*
X937260Y345440D03*
X962660Y345440D03*
X988060Y345440D03*
X1013460Y345440D03*
X1038860Y345440D03*
X1064260Y345440D03*
X1089660Y345440D03*
X1115060Y345440D03*
X1140460Y345440D03*
X1165860Y345440D03*
X1191260Y345440D03*
X1216660Y345440D03*
X1242060Y345440D03*
X1267460Y345440D03*
X1267460Y548640D03*
X1216660Y548640D03*
X584200Y350520D03*
X584200Y401320D03*
X533400Y350520D03*
X533400Y401320D03*
X701040Y-35560D03*
X726440Y-35560D03*
X675640Y-35560D03*
X1046480Y-35560D03*
X1021080Y-35560D03*
X970280Y-35560D03*
X995680Y-35560D03*
X1168400Y-35560D03*
X1300480Y45720D03*
X1249680Y726440D03*
X1417320Y426720D03*
X1417320Y452120D03*
X1417320Y502920D03*
X1417320Y477520D03*
X1407160Y228600D03*
X1407160Y254000D03*
G54D18*
X1262380Y497840D03*
X1262380Y472440D03*
X1262380Y447040D03*
X1262380Y421640D03*
X1262380Y396240D03*
G54D19*
X1264920Y604520D03*
X1277620Y617220D03*
X1264920Y629920D03*
G54D20*
X751840Y-35560D03*
X1071880Y-35560D03*
X1143000Y-35560D03*
X1300480Y71120D03*
X1249680Y701040D03*
X1417320Y401320D03*
X1407160Y203200D03*
G54D21*
X749195Y-38205D02*
X754485Y-38205D01*
X754485Y-32915D01*
X749195Y-32915D01*
X749195Y-38205D01*D02*
X1069235Y-38205D02*
X1074525Y-38205D01*
X1074525Y-32915D01*
X1069235Y-32915D01*
X1069235Y-38205D01*D02*
X1140355Y-38205D02*
X1145645Y-38205D01*
X1145645Y-32915D01*
X1140355Y-32915D01*
X1140355Y-38205D01*D02*
X1297835Y68475D02*
X1303125Y68475D01*
X1303125Y73765D01*
X1297835Y73765D01*
X1297835Y68475D01*D02*
X1247035Y698395D02*
X1252325Y698395D01*
X1252325Y703685D01*
X1247035Y703685D01*
X1247035Y698395D01*D02*
X1414675Y398675D02*
X1419965Y398675D01*
X1419965Y403965D01*
X1414675Y403965D01*
X1414675Y398675D01*D02*
X1404515Y200555D02*
X1409805Y200555D01*
X1409805Y205845D01*
X1404515Y205845D01*
X1404515Y200555D01*D02*
G54D22*
X335280Y370840D03*
X335280Y421640D03*
X335280Y396240D03*
G54D23*
X541123Y652883D03*
X312523Y652883D03*
X543560Y553720D03*
X314960Y553720D03*
G54D24*
X588780Y568160D03*
X588780Y518160D03*
X1102360Y-38240D03*
X1102360Y111760D03*
X960120Y594360D03*
X915498Y696820D03*
X1016000Y685800D03*
X1061720Y584200D03*
X1152360Y655820D03*
X1102360Y655820D03*
X1198880Y203200D03*
X1198380Y152400D03*
X1229360Y149720D03*
X1229360Y299720D03*
X1194800Y293640D03*
X1194300Y242840D03*
X847860Y634200D03*
X847860Y584200D03*
X812300Y634200D03*
X812300Y584200D03*
X776740Y634200D03*
X776740Y584200D03*
X840880Y670560D03*
X690880Y670560D03*
X692230Y707470D03*
X842230Y707470D03*
X730120Y608700D03*
X680120Y608700D03*
X491710Y321090D03*
X341710Y321090D03*
X940201Y-29833D03*
X792480Y-55880D03*
X1306060Y681520D03*
X1306060Y731520D03*
X637680Y-35560D03*
X487680Y-35560D03*
X502420Y50000D03*
X502420Y0D03*
X701040Y2400D03*
X701040Y152400D03*
X735250Y1350D03*
X735250Y151350D03*
X1203960Y629920D03*
X960120Y726740D03*
X1110120Y726740D03*
X1214120Y-58560D03*
X1214120Y91440D03*
X629920Y164960D03*
X629920Y314960D03*
X1346200Y673240D03*
X1346200Y523240D03*
X1376180Y253200D03*
X1376180Y203200D03*
X640080Y825640D03*
X640080Y675640D03*
X857020Y868680D03*
X857020Y918680D03*
X680420Y858520D03*
X680420Y1008520D03*
X762000Y1008520D03*
X762000Y858520D03*
X1107440Y866000D03*
X1107440Y1016000D03*
X1148080Y871080D03*
X1148080Y1021080D03*
X1069480Y949960D03*
X919480Y949960D03*
X864100Y960920D03*
X864100Y1010920D03*
X919480Y985920D03*
X919480Y1010920D03*
X894580Y864400D03*
X894580Y914400D03*
X584200Y624840D03*
X584700Y675640D03*
X1294600Y808220D03*
X1244600Y808220D03*
G54D25*
X960120Y695960D03*
X915498Y595220D03*
X1016000Y584200D03*
X1061720Y685800D03*
X1203960Y731520D03*
G54D26*
X492760Y462280D03*
X518160Y462280D03*
G54D27*
X543560Y462280D03*
G54D28*
X409307Y1038109D03*
X455205Y1038109D03*
X501104Y1038109D03*
X547003Y1038109D03*
X317509Y1038109D03*
X363408Y1038109D03*
G54D29*
X616680Y1001260D03*
X616680Y976260D03*
X1301320Y935880D03*
X1281320Y935880D03*
G54D30*
X508000Y218440D03*
X533400Y218440D03*
X558800Y218440D03*
X584200Y218440D03*
X508000Y294640D03*
X533400Y294640D03*
X558800Y294640D03*
X584200Y294640D03*

M02*
