G04 Generated by Ultiboard 13.0 *
%FSLAX34Y34*%
%MOMM*%

%ADD10C,0.0001*%
%ADD11C,0.5600*%
%ADD12C,0.2540*%
%ADD13C,0.7000*%
%ADD14C,0.5000*%
%ADD15C,0.1270*%
%ADD16C,3.4036*%
%ADD17C,2.2600*%
%ADD18C,1.6088*%
%ADD19C,1.6510*%
%ADD20C,1.5076*%
%ADD21R,0.5291X0.5291*%
%ADD22C,0.9949*%
%ADD23C,1.9898*%
%ADD24C,2.4978*%
%ADD25C,1.5000*%
%ADD26R,1.5000X1.5000*%
%ADD27P,2.1213X4X55*%
%ADD28C,1.9930*%
%ADD29R,1.9930X1.9930*%
%ADD30C,1.8202*%
%ADD31R,0.5500X1.1000*%
%ADD32C,1.4000*%
%ADD33R,1.4000X1.4000*%
%ADD34R,1.1700X2.0800*%
%ADD35R,1.3446X1.3446*%
%ADD36C,1.3446*%
%ADD37R,1.5500X0.6000*%
%ADD38R,0.8200X0.7600*%


G04 ColorRGB 00FF00 for the following layer *
%LNCopper Top*%
%LPD*%
G54D10*
G54D11*
X1281053Y-56540D02*
X1293000Y-68540D01*
X1304947Y-68540D01*
X1316893Y-56540D01*
X1281053Y-20540D01*
X1293000Y-8540D01*
X1304947Y-8540D01*
X1316893Y-20540D01*
X1370653Y-68540D02*
X1334813Y-68540D01*
X1334813Y-38540D01*
X1334813Y-8540D01*
X1370653Y-8540D01*
X1334813Y-38540D02*
X1358707Y-38540D01*
X1388573Y-68540D02*
X1388573Y-8540D01*
X1406493Y-38540D01*
X1424413Y-8540D01*
X1424413Y-68540D01*
G54D12*
X1168400Y-35560D02*
X1219200Y-35560D01*
X1198880Y203200D02*
X1198880Y180200D01*
X1229360Y149720D01*
X1194300Y242840D02*
X1224780Y242840D01*
X1229360Y299720D02*
X1229360Y250460D01*
X1221740Y242840D01*
X1203960Y629920D02*
X1264920Y629920D01*
X1264920Y685800D01*
X1249680Y701040D01*
X1300980Y726440D02*
X1306060Y731520D01*
X1209040Y726440D02*
X1300980Y726440D01*
X1061720Y584200D02*
X1071880Y574040D01*
X1089660Y574040D01*
X1115060Y548640D01*
X335280Y370840D02*
X335280Y327520D01*
X341710Y321090D01*
X584200Y350520D02*
X599440Y365760D01*
X599440Y507500D01*
X588780Y518160D01*
X601980Y518160D01*
X784860Y548640D02*
X784860Y576080D01*
X776740Y584200D01*
X810260Y548640D02*
X810260Y582160D01*
X812300Y584200D01*
X835660Y548640D02*
X835660Y572000D01*
X847860Y584200D01*
X680120Y608700D02*
X680120Y659800D01*
X690880Y670560D01*
X842230Y707470D02*
X842230Y671910D01*
X840880Y670560D01*
X929640Y670560D01*
X1016000Y584200D01*
X726440Y-35560D02*
X701040Y-35560D01*
X1300480Y71120D02*
X1300480Y79520D01*
X1297500Y82500D01*
X1222500Y82500D01*
X1222500Y83060D01*
X1214120Y91440D01*
X1016000Y584200D02*
X1061720Y584200D01*
X915498Y696820D02*
X959260Y696820D01*
X960120Y695960D01*
X601980Y518160D02*
X665480Y581660D01*
X739140Y581660D01*
X767080Y609600D01*
X901118Y609600D01*
X915498Y595220D01*
X335280Y396240D02*
X477520Y396240D01*
X543560Y462280D01*
X512030Y298670D02*
X508000Y294640D01*
X531984Y350520D02*
X584200Y350520D01*
X491710Y321090D02*
X506950Y321090D01*
X533400Y294640D01*
X558800Y294640D01*
X632460Y345440D02*
X632460Y339960D01*
X630000Y337500D01*
X630000Y314960D01*
X629920Y314960D01*
X1102360Y111760D02*
X1168400Y177800D01*
X1168400Y297180D01*
X1216660Y345440D01*
X940201Y-29833D02*
X964553Y-29833D01*
X970280Y-35560D01*
X637680Y-35560D02*
X637680Y68440D01*
X629920Y76200D01*
X602310Y76200D01*
X601040Y74930D01*
X601040Y62230D02*
X623570Y62230D01*
X627380Y58420D01*
X462280Y25400D02*
X439420Y48260D01*
X439420Y75946D01*
X421640Y93726D01*
X627380Y-10160D02*
X627380Y58420D01*
X627380Y-10160D02*
X614680Y-22860D01*
X467360Y-22860D01*
X406400Y38100D01*
X604520Y-15240D02*
X482600Y-15240D01*
X462280Y5080D01*
X462280Y25400D01*
X601040Y49530D02*
X610870Y49530D01*
X619760Y40640D01*
X619760Y0D01*
X604520Y-15240D01*
X502420Y0D02*
X502420Y19820D01*
X532130Y49530D01*
X547040Y49530D01*
X502420Y50000D02*
X507200Y50000D01*
X519430Y62230D01*
X547040Y62230D01*
X1046480Y-35560D02*
X1046480Y312420D01*
X1013460Y345440D01*
X1021080Y-35560D02*
X1021080Y276860D01*
X988060Y309880D01*
X988060Y345440D01*
X995680Y-35560D02*
X995680Y241300D01*
X962660Y274320D01*
X962660Y345440D01*
X940201Y-29833D02*
X940201Y342499D01*
X937260Y345440D01*
X547040Y74930D02*
X547040Y105080D01*
X584200Y142240D01*
X627380Y142240D01*
X830580Y345440D01*
X835660Y345440D01*
X547040Y36830D02*
X572770Y36830D01*
X572770Y67310D01*
X713740Y208280D01*
X723900Y208280D01*
X861060Y345440D01*
X1219200Y-35560D02*
X1300480Y45720D01*
X1346200Y673240D02*
X1342500Y669540D01*
X1342500Y630000D01*
X1335000Y622500D01*
X1282500Y622500D01*
X1282500Y622100D01*
X1277620Y617220D01*
X1417320Y502920D02*
X1410000Y495600D01*
X1410000Y495000D01*
X1265220Y495000D01*
X1262380Y497840D01*
X1417320Y477520D02*
X1412300Y472500D01*
X1267500Y472500D01*
X1267440Y472440D01*
X1262380Y472440D01*
X1417320Y401320D02*
X1413500Y397500D01*
X1267500Y397500D01*
X1266240Y396240D01*
X1262380Y396240D01*
X1417320Y426720D02*
X1410600Y420000D01*
X1267500Y420000D01*
X1265860Y421640D01*
X1262380Y421640D01*
X1417320Y452120D02*
X1412120Y452120D01*
X1410000Y450000D01*
X1265340Y450000D01*
X1262380Y447040D01*
X1229360Y149720D02*
X1237220Y149720D01*
X1237500Y150000D01*
X1395000Y150000D01*
X1402500Y157500D01*
X1402500Y198540D01*
X1407160Y203200D01*
X1185000Y-35560D02*
X1185000Y233540D01*
X1194300Y242840D01*
X1224780Y242840D02*
X1224780Y241120D01*
X1224780Y240000D01*
X1395000Y240000D01*
X1407160Y254000D02*
X1395000Y254000D01*
X1395000Y217500D01*
X1387500Y210000D01*
X1382980Y210000D01*
X1376180Y203200D01*
X680420Y858520D02*
X762000Y858520D01*
X781240Y858520D01*
X803300Y880580D01*
X919480Y985920D02*
X919480Y949960D01*
X1069480Y949960D02*
X1069480Y978040D01*
X1107440Y1016000D01*
X864100Y1010920D02*
X919480Y1010920D01*
X864100Y1010920D02*
X855020Y1020000D01*
X682500Y1020000D01*
X682500Y1008520D01*
X680420Y1008520D01*
X690880Y670560D02*
X690880Y675000D01*
X640080Y675000D01*
X640080Y675640D01*
X1107440Y1016000D02*
X1110000Y1016000D01*
X1110000Y1027500D01*
X1117500Y1035000D01*
X1402500Y1035000D01*
X1405434Y1037934D01*
X1405434Y1041646D01*
X1455434Y1041646D02*
X1455434Y1061706D01*
X970266Y1061706D01*
X919480Y1010920D01*
X1185025Y828565D02*
X1185025Y750455D01*
X1203960Y731520D01*
X1152825Y828565D02*
X1152825Y866335D01*
X1148080Y871080D01*
X1306060Y731520D02*
X1306060Y796760D01*
X1294600Y808220D01*
X1301320Y935880D02*
X1394600Y935880D01*
X1405434Y925046D01*
X1148080Y871080D02*
X1401468Y871080D01*
X1455434Y925046D01*
X822300Y907580D02*
X832320Y907580D01*
X848360Y891540D01*
X1011060Y891540D01*
X1069480Y949960D01*
X803300Y907580D02*
X803300Y920140D01*
X855560Y920140D01*
X857020Y918680D01*
X1191260Y345440D02*
X1191260Y482600D01*
X1231900Y523240D01*
X1346200Y523240D01*
X960120Y726740D02*
X901400Y726740D01*
X817880Y810260D01*
X698500Y810260D01*
X657860Y850900D01*
X657860Y1031240D01*
X607060Y1082040D01*
X407339Y1082040D01*
X363408Y1038109D01*
X409307Y1038109D02*
X408199Y1038109D01*
X340369Y1008371D02*
X317509Y1031231D01*
X317509Y1038109D01*
X857020Y868680D02*
X849400Y861060D01*
X812800Y880580D02*
X812800Y866140D01*
X817130Y861810D01*
X850150Y861810D01*
X822300Y880580D02*
X1062520Y880580D01*
X1077100Y866000D01*
X1107440Y866000D01*
X885000Y1010920D02*
X885000Y922500D01*
X886480Y922500D01*
X894580Y914400D01*
X857020Y918680D02*
X862900Y924560D01*
X885000Y924560D01*
X563880Y1021232D02*
X547003Y1038109D01*
X563880Y1021232D02*
X563880Y513080D01*
X543560Y492760D01*
X543560Y462280D01*
X1102360Y655820D02*
X1102360Y718980D01*
X1110120Y726740D01*
X340360Y1008380D02*
X379577Y1008380D01*
X409307Y1038109D01*
X406400Y38100D02*
X401320Y38100D01*
X365760Y73660D01*
X365760Y80137D01*
X393192Y107569D01*
G54D13*
X312523Y652883D02*
X358243Y652883D01*
X455205Y749845D01*
X455205Y1038109D01*
X501104Y1038109D02*
X501104Y1039584D01*
X616680Y849040D02*
X640080Y825640D01*
X616680Y976260D02*
X616680Y847820D01*
X640080Y825640D02*
X630640Y825640D01*
X630000Y825000D01*
X600000Y825000D01*
X592500Y817500D01*
X592500Y682500D01*
X591560Y682500D01*
X584700Y675640D01*
X551180Y1071880D02*
X534875Y1071880D01*
X501104Y1038109D01*
X551180Y1071880D02*
X591820Y1031240D01*
X591820Y1001120D01*
X616680Y976260D01*
G54D14*
X443230Y554990D02*
X518160Y480060D01*
X518160Y462280D01*
X441960Y553720D02*
X314960Y553720D01*
X541123Y652883D02*
X414123Y652883D01*
X314960Y553720D01*
G54D15*
X251476Y-91880D02*
X251476Y29107D01*
X251476Y-91880D02*
X375056Y-91880D01*
X1487274Y-91880D02*
X1363694Y-91880D01*
X1487274Y-91880D02*
X1487274Y29107D01*
X1487274Y1117994D02*
X1487274Y997007D01*
X1487274Y1117994D02*
X1363694Y1117994D01*
X251476Y1117994D02*
X375056Y1117994D01*
X251476Y1117994D02*
X251476Y997007D01*
X201476Y-91880D02*
X101476Y-91880D01*
X151476Y-141880D02*
X151476Y-41880D01*
X113976Y-91880D02*
G75*
D01*
G02X113976Y-91880I37500J0*
G01*
X1537274Y-91880D02*
X1637274Y-91880D01*
X1587274Y-141880D02*
X1587274Y-41880D01*
X1549774Y-91880D02*
G75*
D01*
G02X1549774Y-91880I37500J0*
G01*
X1574774Y-91880D02*
G75*
D01*
G02X1574774Y-91880I12500J0*
G01*
X201476Y1117994D02*
X101476Y1117994D01*
X151476Y1067994D02*
X151476Y1167994D01*
X113976Y1117994D02*
G75*
D01*
G02X113976Y1117994I37500J0*
G01*
X126476Y1117994D02*
G75*
D01*
G02X126476Y1117994I25000J0*
G01*
X138976Y1117994D02*
G75*
D01*
G02X138976Y1117994I12500J0*
G01*
G54D16*
X407416Y246380D03*
X407416Y-3556D03*
G54D17*
X421640Y66040D03*
X421640Y93726D03*
X421640Y121412D03*
X421640Y149098D03*
X421640Y176784D03*
X393192Y79883D03*
X393192Y107569D03*
X393192Y135255D03*
X393192Y162941D03*
G54D18*
X632460Y548640D03*
X657860Y548640D03*
X683260Y548640D03*
X708660Y548640D03*
X734060Y548640D03*
X759460Y548640D03*
X784860Y548640D03*
X810260Y548640D03*
X835660Y548640D03*
X861060Y548640D03*
X886460Y548640D03*
X911860Y548640D03*
X937260Y548640D03*
X962660Y548640D03*
X988060Y548640D03*
X1013460Y548640D03*
X1038860Y548640D03*
X1064260Y548640D03*
X1089660Y548640D03*
X1115060Y548640D03*
X1140460Y548640D03*
X1165860Y548640D03*
X1191260Y548640D03*
X1242060Y548640D03*
X632460Y345440D03*
X657860Y345440D03*
X683260Y345440D03*
X708660Y345440D03*
X734060Y345440D03*
X759460Y345440D03*
X784860Y345440D03*
X810260Y345440D03*
X835660Y345440D03*
X861060Y345440D03*
X886460Y345440D03*
X911860Y345440D03*
X937260Y345440D03*
X962660Y345440D03*
X988060Y345440D03*
X1013460Y345440D03*
X1038860Y345440D03*
X1064260Y345440D03*
X1089660Y345440D03*
X1115060Y345440D03*
X1140460Y345440D03*
X1165860Y345440D03*
X1191260Y345440D03*
X1216660Y345440D03*
X1242060Y345440D03*
X1267460Y345440D03*
X1267460Y548640D03*
X1216660Y548640D03*
X584200Y350520D03*
X584200Y401320D03*
X533400Y350520D03*
X533400Y401320D03*
X701040Y-35560D03*
X726440Y-35560D03*
X675640Y-35560D03*
X1046480Y-35560D03*
X1021080Y-35560D03*
X970280Y-35560D03*
X995680Y-35560D03*
X1168400Y-35560D03*
X1300480Y45720D03*
X1249680Y726440D03*
X1417320Y426720D03*
X1417320Y452120D03*
X1417320Y502920D03*
X1417320Y477520D03*
X1407160Y228600D03*
X1407160Y254000D03*
G54D19*
X1262380Y497840D03*
X1262380Y472440D03*
X1262380Y447040D03*
X1262380Y421640D03*
X1262380Y396240D03*
G54D20*
X1264920Y604520D03*
X1277620Y617220D03*
X1264920Y629920D03*
G54D21*
X751840Y-35560D03*
X1071880Y-35560D03*
X1143000Y-35560D03*
X1300480Y71120D03*
X1249680Y701040D03*
X1417320Y401320D03*
X1407160Y203200D03*
G54D22*
X749195Y-38205D02*
X754485Y-38205D01*
X754485Y-32915D01*
X749195Y-32915D01*
X749195Y-38205D01*D02*
X1069235Y-38205D02*
X1074525Y-38205D01*
X1074525Y-32915D01*
X1069235Y-32915D01*
X1069235Y-38205D01*D02*
X1140355Y-38205D02*
X1145645Y-38205D01*
X1145645Y-32915D01*
X1140355Y-32915D01*
X1140355Y-38205D01*D02*
X1297835Y68475D02*
X1303125Y68475D01*
X1303125Y73765D01*
X1297835Y73765D01*
X1297835Y68475D01*D02*
X1247035Y698395D02*
X1252325Y698395D01*
X1252325Y703685D01*
X1247035Y703685D01*
X1247035Y698395D01*D02*
X1414675Y398675D02*
X1419965Y398675D01*
X1419965Y403965D01*
X1414675Y403965D01*
X1414675Y398675D01*D02*
X1404515Y200555D02*
X1409805Y200555D01*
X1409805Y205845D01*
X1404515Y205845D01*
X1404515Y200555D01*D02*
G54D23*
X335280Y370840D03*
X335280Y421640D03*
X335280Y396240D03*
G54D24*
X541123Y652883D03*
X312523Y652883D03*
X543560Y553720D03*
X314960Y553720D03*
G54D25*
X588780Y568160D03*
X1102360Y-38240D03*
X960120Y594360D03*
X915498Y696820D03*
X1016000Y685800D03*
X1061720Y584200D03*
X1152360Y655820D03*
X1198880Y203200D03*
X1229360Y149720D03*
X1194800Y293640D03*
X847860Y634200D03*
X812300Y634200D03*
X776740Y634200D03*
X840880Y670560D03*
X692230Y707470D03*
X730120Y608700D03*
X491710Y321090D03*
X940201Y-29833D03*
X1306060Y681520D03*
X637680Y-35560D03*
X502420Y50000D03*
X701040Y2400D03*
X735250Y1350D03*
X1203960Y629920D03*
X960120Y726740D03*
X1214120Y-58560D03*
X629920Y164960D03*
X1346200Y673240D03*
X1376180Y253200D03*
X640080Y825640D03*
X857020Y868680D03*
X680420Y858520D03*
X762000Y1008520D03*
X1107440Y866000D03*
X1148080Y871080D03*
X1069480Y949960D03*
X864100Y960920D03*
X919480Y985920D03*
X894580Y864400D03*
X584200Y624840D03*
X1294600Y808220D03*
G54D26*
X588780Y518160D03*
X1102360Y111760D03*
X960120Y695960D03*
X915498Y595220D03*
X1016000Y584200D03*
X1061720Y685800D03*
X1102360Y655820D03*
X1198380Y152400D03*
X1229360Y299720D03*
X1194300Y242840D03*
X847860Y584200D03*
X812300Y584200D03*
X776740Y584200D03*
X690880Y670560D03*
X842230Y707470D03*
X680120Y608700D03*
X341710Y321090D03*
X1306060Y731520D03*
X487680Y-35560D03*
X502420Y0D03*
X701040Y152400D03*
X735250Y151350D03*
X1203960Y731520D03*
X1110120Y726740D03*
X1214120Y91440D03*
X629920Y314960D03*
X1346200Y523240D03*
X1376180Y203200D03*
X640080Y675640D03*
X857020Y918680D03*
X680420Y1008520D03*
X762000Y858520D03*
X1107440Y1016000D03*
X1148080Y1021080D03*
X919480Y949960D03*
X864100Y1010920D03*
X919480Y1010920D03*
X894580Y914400D03*
X584700Y675640D03*
X1244600Y808220D03*
G54D27*
X792480Y-55880D03*
G54D28*
X492760Y462280D03*
X518160Y462280D03*
G54D29*
X543560Y462280D03*
G54D30*
X409307Y1038109D03*
X455205Y1038109D03*
X501104Y1038109D03*
X547003Y1038109D03*
X317509Y1038109D03*
X363408Y1038109D03*
G54D31*
X803300Y880580D03*
X812800Y880580D03*
X822300Y880580D03*
X803300Y907580D03*
X822300Y907580D03*
G54D32*
X616680Y1001260D03*
X1301320Y935880D03*
G54D33*
X616680Y976260D03*
X1281320Y935880D03*
G54D34*
X1405434Y1041646D03*
X1430434Y1041646D03*
X1455434Y925046D03*
X1430434Y925046D03*
X1455434Y1041646D03*
X1405434Y925046D03*
G54D35*
X508000Y218440D03*
G54D36*
X533400Y218440D03*
X558800Y218440D03*
X584200Y218440D03*
X508000Y294640D03*
X533400Y294640D03*
X558800Y294640D03*
X584200Y294640D03*
G54D37*
X547040Y36830D03*
X601040Y36830D03*
X547040Y49530D03*
X547040Y62230D03*
X601040Y49530D03*
X601040Y62230D03*
X547040Y74930D03*
X601040Y74930D03*
G54D38*
X1152825Y828565D03*
X1185025Y828565D03*

M02*
