M48
METRIC,TZ
VER,1
FMAT,2
DETECT,ON
ATC,ON
T1C3.0480
T2C1.0000
T3C0.8890
T4C1.0160
T5C0.9949
T6C1.1854
T7C1.3124
T8C2.5080
T9C0.9000
T10C1.1810
T11C0.8000
%
T1
X40.7416Y24.6380
Y-0.3556
T2
X42.1640Y6.6040
Y9.3726
Y12.1412
Y14.9098
Y17.6784
X39.3192Y7.9883
Y10.7569
Y13.5255
Y16.2941
T3
X63.2460Y54.8640
X65.7860
X68.3260
X70.8660
X73.4060
X75.9460
X78.4860
X81.0260
X83.5660
X86.1060
X88.6460
X91.1860
X93.7260
X96.2660
X98.8060
X101.3460
X103.8860
X106.4260
X108.9660
X111.5060
X114.0460
X116.5860
X119.1260
X124.2060
X126.2380Y49.7840
Y47.2440
Y44.7040
Y42.1640
X63.2460Y34.5440
X65.7860
X68.3260
X70.8660
X73.4060
X75.9460
X78.4860
X81.0260
X83.5660
X86.1060
X88.6460
X91.1860
X93.7260
X96.2660
X98.8060
X101.3460
X103.8860
X106.4260
X108.9660
X111.5060
X114.0460
X116.5860
X119.1260
X126.2380Y39.6240
X121.6660Y34.5440
X124.2060
X126.7460
Y54.8640
X121.6660
X58.4200Y35.0520
Y40.1320
X53.3400Y35.0520
Y40.1320
X70.1040Y-3.5560
X72.6440
X67.5640
X104.6480
X102.1080
X97.0280
X99.5680
X116.8400
X130.0480Y4.5720
X124.9680Y72.6440
X40.9307Y103.8109
X45.5205
X50.1104
X54.7003
X31.7509
X141.7320Y42.6720
Y45.2120
Y50.2920
Y47.7520
X140.7160Y22.8600
Y25.4000
X36.3408Y103.8109
X50.8000Y21.8440
X53.3400
X55.8800
X58.4200
X50.8000Y29.4640
X53.3400
X55.8800
X58.4200
T4
X126.4920Y60.4520
X127.7620Y61.7220
X126.4920Y62.9920
T5
X75.1840Y-3.5560
X107.1880
X114.3000
X130.0480Y7.1120
X124.9680Y70.1040
X141.7320Y40.1320
X140.7160Y20.3200
T6
X33.5280Y37.0840
Y42.1640
Y39.6240
T7
X54.1123Y65.2883
X31.2523
X54.3560Y55.3720
X31.4960
T8
X30.9880Y-5.8420
X145.7960Y-6.0960
X146.0500Y109.2200
X30.7340
T9
X58.8780Y56.8160
Y51.8160
X110.2360Y-3.8240
Y11.1760
X96.0120Y59.4360
Y69.5960
X91.5498Y69.6820
Y59.5220
X101.6000Y68.5800
Y58.4200
X106.1720
Y68.5800
X115.2360Y65.5820
X110.2360
X119.8880Y20.3200
X119.8380Y15.2400
X122.9360Y14.9720
Y29.9720
X119.4800Y29.3640
X119.4300Y24.2840
X84.7860Y63.4200
Y58.4200
X81.2300Y63.4200
Y58.4200
X77.6740Y63.4200
Y58.4200
X84.0880Y67.0560
X69.0880
X69.2230Y70.7470
X84.2230
X73.0120Y60.8700
X68.0120
X49.1710Y32.1090
X34.1710
X94.0201Y-2.9833
X79.2480Y-5.5880
X130.6060Y68.1520
Y73.1520
X63.7680Y-3.5560
X48.7680
X50.2420Y5.0000
Y0.0000
X70.1040Y0.2400
Y15.2400
X73.5250Y0.1350
Y15.1350
X120.3960Y62.9920
Y73.1520
X96.0120Y72.6740
X111.0120
X121.4120Y-5.8560
Y9.1440
X62.9920Y16.4960
Y31.4960
X134.6200Y67.3240
Y52.3240
X137.6180Y25.3200
Y20.3200
X64.0080Y82.5640
Y67.5640
X85.7020Y86.8680
Y91.8680
X68.0420Y85.8520
Y100.8520
X76.2000Y100.8520
Y85.8520
X110.7440Y86.6000
Y101.6000
X114.8080Y87.1080
Y102.1080
X106.9480Y94.9960
X91.9480
X86.4100Y96.0920
Y101.0920
X91.9480Y98.5920
Y101.0920
X89.4580Y86.4400
Y91.4400
X58.4200Y62.4840
X58.4700Y67.5640
X129.4600Y80.8220
X124.4600
T10
X49.2760Y46.2280
X51.8160
X54.3560
T11
X61.6680Y100.1260
Y97.6260
X130.1320Y93.5880
X128.1320
M30
