G04 Generated by Ultiboard 13.0 *
%FSLAX34Y34*%
%MOMM*%

%ADD10C,0.0001*%
%ADD11C,0.1270*%


G04 ColorRGB FF14FF for the following layer *
%LNSilkscreen Bottom*%
%LPD*%
G54D10*
G54D11*
X251476Y-91880D02*
X251476Y29107D01*
X251476Y-91880D02*
X375056Y-91880D01*
X1487274Y-91880D02*
X1363694Y-91880D01*
X1487274Y-91880D02*
X1487274Y29107D01*
X1487274Y1117994D02*
X1487274Y997007D01*
X1487274Y1117994D02*
X1363694Y1117994D01*
X251476Y1117994D02*
X375056Y1117994D01*
X251476Y1117994D02*
X251476Y997007D01*
X201476Y-91880D02*
X101476Y-91880D01*
X151476Y-141880D02*
X151476Y-41880D01*
X113976Y-91880D02*
G75*
D01*
G02X113976Y-91880I37500J0*
G01*
X1537274Y-91880D02*
X1637274Y-91880D01*
X1587274Y-141880D02*
X1587274Y-41880D01*
X1549774Y-91880D02*
G75*
D01*
G02X1549774Y-91880I37500J0*
G01*
X1574774Y-91880D02*
G75*
D01*
G02X1574774Y-91880I12500J0*
G01*
X201476Y1117994D02*
X101476Y1117994D01*
X151476Y1067994D02*
X151476Y1167994D01*
X113976Y1117994D02*
G75*
D01*
G02X113976Y1117994I37500J0*
G01*
X126476Y1117994D02*
G75*
D01*
G02X126476Y1117994I25000J0*
G01*
X138976Y1117994D02*
G75*
D01*
G02X138976Y1117994I12500J0*
G01*

M02*
